<svg xmlns="http://www.w3.org/2000/svg" class="project__logo" xml:space="preserve" id="Layer_1" x="0" y="0" version="1.1" viewBox="0 0 2448.05 585.34"><path style="fill:var(--logo-bw)" d="m1259.48 211.11-32.94 50.51h-1.89l-32.31-50.51h-48l55.21 79.69-59.29 85.33h45.18l36.7-56.78h1.57l36.39 56.78h47.69l-58.67-85.96 55.53-79.06z"/><path d="m1023.64 189.21-1.46-8.32-1.03-3.09-1.1-2.67c-7.93-18.59-22.29-28.08-42.37-28.79l12.3-6.47-28.43-53.07s-65.36 33.84-70.2 36.61c-13.93 8.32-28.83 24.56-28.83 45.18.23 3.46.89 6.87 1.95 10.17-12.87-17.77-28.86-24.24-50.12-19.09a68.65 68.65 0 0 0-29.5 17.56l-2.88-7.11-72.54 28.26 8.96 23.25a57.56 57.56 0 0 0-27.47-12.51c0-.36-5.51-6.82-5.94-7.29l32.63-29.39-4.51-5.19c1.35-1.35 14.89-14.79 14.89-14.79V127.3c0-.36 0-1.42-6.72-12.8-.21-.28-12.44-11.41-12.44-11.41l-5.51 3.2c0-.32-17.17-4.76-17.17-4.76l-5.62-1.46a19.8 19.8 0 0 0-7.11-14.47c-1.06-10.77-10.22-18.91-21.04-18.7-11.78-.22-21.5 9.15-21.72 20.93v.01c.27 5.53 2.85 10.68 7.11 14.22L627.5 98.9l-1.95 6.75-1.14-.25-10.66-2.1 2.99-23.32-8.21.85c.28-2.24 1.67-13.08 1.67-13.08l-39.38 3.77c-.46 0-11.02 12.01-11.84 12.9l1.17-15.85s-26.41 15.64-30.07 17.77c0-3.09-1.78-32.34-1.78-32.34L479 87.23s1.1 22.04 1.17 23l-2.06 1.53c0-.28-22.75-3.31-26.3-3.77a20.2 20.2 0 0 0-6.9-13.01c-1.06-10.77-10.22-18.91-21.04-18.7-11.66-.18-21.3 9.03-21.65 20.69l-6.5 1.74c0-2.45.85-13.54.85-13.54L353.35 96.9l-1.71 4.51-26.34 69.63-7.11-1.1-11.52 27.23 9.17 6.01-2.63 6.26 28.43 18.52-4.73 7.96-41.94.18v5.26a51.48 51.48 0 0 0-38.39 0c-24.45 10.66-39.1 36.86-39.1 69.77v.71l.71 11.09h-.89c-4.27 0-14.96-1.53-15.03-5.51v-61.6c.28-9.6 10.66-10.09 13.9-10.02l9.81.21v-52.46h46.21l-.21-67.89c0-16.56-7.11-28.9-19.3-33.84a31.96 31.96 0 0 0-22.21.25v-2.42h-45.96V40.61c.43-20.57-15.89-37.59-36.46-38.02-.33-.01-.67-.01-1-.01H1.39v56.87h9.53c1.42 0 13.9.46 14.22 9.99v59.29c-.25 8.92-12.83 9.45-14.25 9.49l-9.45.14-.34 107.61 9.88-.21c2.42 0 14.43 0 14.71 10.06v61.6c0 3.55-10.66 5.54-15.85 5.47L0 322.75v65.9h107.62v-44.54l6.11 7.82 6.22-7.89v44.61h109.69v-30.64l.6 1.1 3.09 4.44 9.56 10.02 6.26 4.51 7.43 3.95a45.6 45.6 0 0 0 18.3 3.55l1.92 6.86c32 113.75 133.05 192.9 246 192.9 134 0 243.83-105.1 255.41-244.47 0 0 .43-5.3.57-7.11 34.33-11.41 108.83-41.59 137.94-55.48l-7.68-21.57 12.37 19.12L992 240.89a61.9 61.9 0 0 0 27.12-27.16l.5-1.17 2.35-6.22.25-1.03v-.21l1.78-9.56v-6.43z" style="fill:#fff"/><path d="M655.7 185.94c3.95-5.44 11.27-16.28 11.27-16.28l-5.12-5.51s-2.2 3.55-4.48 1.42 8.46-34.55 8.46-34.55l-25.06-7.61-3.55 12.69 5.69 5.54-4.05 31.99c-6.56-4.41-13.37-8.43-20.4-12.05a250 250 0 0 1 10.66-34.48l-23.81-4.76-11.05 12.55 5.72 3.55c.92-.87 1.92-1.66 2.99-2.35 2.91-1.71 3.98 2.06 1.88 5.47-3.95 2.7-8.17 5.69-12.37 8.81-5.33-1.82-10.76-3.45-16.28-4.87 7.36-16.74 15.14-33.98 17.77-37.82 3.3-.81 6.67-1.3 10.06-1.46l1.99-15.6-22.25 2.27-25.73 48.94-3.77-.68c-.32-14.33.21-28.67 1.56-42.94l-26.94 16.35-2.45 20.12s-1.24 1.53-3.09 4.19h-1.53c0-11.55-1.28-52.11-1.28-52.11l-25.09 17.52.53 10.95 5.72.57c.85 7.54 1.64 15.82 2.38 23.89-3.13.28-6.23.62-9.31 1l-.46-4.98s-2.84-2.03-4.59-3.55c-1.88 1.46-8.32 8.1-10.24 5.22-1.35-2.03 1.71-4.55 1.71-4.55l-26.23-3.55-4.55 13.68 5.72 3.98-.43 2.38c-8.13 2.69-16.08 5.88-23.81 9.56 2.49-9.06 5.44-18.23 5.44-18.23L410 133.22l-3.55 13.12 5.69 5.72-1.6 18.48c-7.07 4.45-13.85 9.34-20.3 14.64-.57-23.96 2.1-75.03 2.52-75.88-2.67.85-25.66 7.43-25.66 7.43l-29 77.24-7.54-1.17-5.33 12.97 22 14.22 11.41-30.21 12.23 2.84c.32 3.31.75 6.68 1.21 9.88a171.94 171.94 0 0 0-47.31 117.75c0 100.16 88.64 181.27 197.98 181.27s197.98-81.22 197.98-181.27c-.02-53.23-25.08-101.15-65.03-134.31m-286.23-9.63-6.93-1.71 8.53-23.78zm289.54-65.12c6.23-.43 10.93-5.83 10.49-12.06-.43-6.23-5.83-10.93-12.06-10.49-5.93.41-10.53 5.34-10.52 11.28.23 6.45 5.64 11.49 12.09 11.27m28.79 75.04 16.39-14.64-5.58-6.4s-4.59 3.55-5.79-.25c.17-4.06 1.22-8.04 3.06-11.66 2.2-4.48 5.65-11.05 8-7.39 2.04 4.1 3.31 8.53 3.77 13.08l10.66-10.66v-17.38s-2.63-2.27-4.23-3.87c-2.03 1.24-9.06 7.11-10.66 4.12-1.14-2.06 2.13-4.23 2.13-4.23L683 121.08l-5.72 13.01 5.15 4.41-10.2 35.76zM430.46 120.9c6.23-.43 10.93-5.83 10.49-12.06-.43-6.23-5.83-10.93-12.06-10.49-5.93.41-10.53 5.34-10.52 11.28.24 6.45 5.65 11.49 12.09 11.27" style="fill:#fddb00"/><path d="M714.42 366c-1.88-.43-4.9-2.42-2.59-4.73-.36-2.74-3.73-3.95-4.9-1.21-2.35 5.08 5.26 2.38 3.55 7.11a4.585 4.585 0 0 1-4.59 3.09c-4.19-.43-.71-4.34-2.99-5.9a3.204 3.204 0 0 0-4.52-.16q-.24.21-.42.48c-3.06 4.3 3.77 3.16 2.99 7.11 0 1.17-1.17 2.74-2.7 2.35a3.556 3.556 0 0 1-2.24-4.34 4.76 4.76 0 0 0-4.16-1.99c-1.85.8-3.25 2.37-3.84 4.3-1.14 1.17-2.67.36-3.8 0-4.94.36-4.27 8.6-9.92 5.01-1.53 1.17-1.92 2.74-3.06 3.91-1.92 1.92-4.59.36-6.82 0-.39 1.95-.43 3.91-2.31 5.08-4.59 1.53-4.16-3.16-5.65-5.54-3.77-3.16-4.59 3.09-6.86 4.27-7.11-4.76-5.4 7.82-12.19 4.19-3.8-.43-2.74 5.86-6.9 5.05-1.49-.78-4.55-1.99-2.99-4.34-.36-1.17-1.49-2.77-3.02-2.77-6.47 3.06 2.99 4.73 1.81 9.06a4.68 4.68 0 0 1-4.19 2.31 3.806 3.806 0 0 1-2.24-5.12 5.33 5.33 0 0 0-4.16-1.99c-.78.78-2.31 1.53-2.31 3.13-.82 2.74-3.55 1.53-5.33 1.1a3.89 3.89 0 0 0-3.06 2.31 3.92 3.92 0 0 1-4.59 2.7c-5.69.32 0-5.08-3.55-6.72-1.14-1.6-3.02-.43-3.8.75-2.7 5.47 6.43 2.42 3.55 7.89a3.806 3.806 0 0 1-4.19 2.31 3.56 3.56 0 0 1-2.34-4.45c.03-.09.06-.19.1-.28-.75-1.17-1.88-2.77-3.77-2.38-2.67.75-2.7 3.91-4.23 5.44-5.62-5.15-5.72 4.66-10.66 3.84-2.27 0-4.9-1.99-2.99-4.34a3.554 3.554 0 0 0-3.55-2.77c-6.86 4.27 3.77 4.76 1.81 8.67-.29 1.82-2 3.07-3.82 2.78-.13-.02-.25-.05-.38-.08-2.27-.43-2.24-3.16-1.85-5.12a4.8 4.8 0 0 0-4.16-1.99c-1.92.39-2.7 2.74-3.55 4.3-1.92 1.17-4.55-.43-6.47 0-1.14 1.95-2.31 5.08-4.98 4.66-2.67-.43-2.63-3.16-2.59-5.51-1.14-1.21-2.27-2.38-4.16-1.99-1.92 1.17-2.31 3.13-3.55 4.66-2.4.69-5 .07-6.82-1.64.78-1.95 1.56-4.3-.71-5.51-1-.76-2.43-.57-3.19.43-.16.21-.29.45-.37.71-3.09 4.69 5.3 2.81 3.55 7.5a3.344 3.344 0 0 1-6.61-1.01c.08-.51.27-.99.56-1.41-4.48-7.5-6.47 3.55-11.41 2.24-1.14-.43-3.55-1.6-2.24-3.55-.36-1.95-1.46-3.95-3.38-3.95s-2.67 2.7-3.09 4.66c1.14 1.17 3.02 1.21 4.16 2.38.76 1.53.23 3.39-1.21 4.3-8 2.27 0-7.86-6.36-7.11-5.69-3.2-3.55 6.26-9.17 4.62-4.55-1.21 0-5.9-3.55-7.5-5.65-2.81-3.55 6.61-9.17 4.23-5.69.75-.71-5.51-4.48-7.11a2.904 2.904 0 0 0-3.8 1.14c-3.09 5.86 6.04 2.42 4.09 7.89a3.8 3.8 0 0 1-3.84 2.31c-3.8-.43-1.85-5.12-2.99-6.68-5.65-5.15-4.62 5.08-10.27 3.84a3.554 3.554 0 0 1-2.55-4.33c.07-.27.17-.54.31-.78-4.12-7.5-6.5 3.09-10.66 1.88-2.27-.43-4.55-1.99-2.99-4.73a3.79 3.79 0 0 0-3.77-2.77c-7.64 5.44 5.26 4.37 2.56 9.45-.66 1.9-2.6 3.04-4.59 2.7-4.16-1.21-.32-5.47-2.99-7.46-6.04-3.98-4.23 5.83-9.13 4.23-4.51-2.77-4.19 3.55-6.11 5.44-1.53.36-2.67-.43-4.16-.46a4.32 4.32 0 0 0-2.7 3.55c.49 1.8 1.95 3.17 3.77 3.55a3.28 3.28 0 0 0 2.67-2.7 3.025 3.025 0 0 1 3.1-2.94c.38.01.75.09 1.09.24 1.69.94 2.59 2.86 2.24 4.76-.39 3.13-4.19 2.31-6.08 1.88a4.62 4.62 0 0 0-1.95 4.3 4.15 4.15 0 0 0 3.77 2.77c2.67 0 2.31-3.55 3.84-5.05 1.9-.55 3.93.27 4.9 1.99.73 1.72.42 3.7-.78 5.12-1.53.36-2.67-.43-4.19-.43s-2.27 1.53-1.92 2.74c.77 1.02 1.65 1.95 2.63 2.77 3.02 2.38 3.06-2.35 4.19-3.87 1.88 0 3.8 0 4.9 2.03 1.14 1.17 0 3.13 0 4.73 1.07 2.63 3.95 1.71 5.83 3.09a.72.72 0 0 1 0-.5v-.92c.32-1.88.78-4.69 3.55-4.66s4.12 1.81 4.12 3.55v-.21.25c.04.35.04.71 0 1.07.03.8-.2 1.59-.68 2.24-.51.64-1.31 1-2.13.96l-3.55-.64c-.48-.13-.92-.4-1.24-.78.25 1.56-1.88 3.55 0 4.98 5.62 7.54 4.23-5.05 10.27-2.67 1.88.43 2.24 2.77 2.24 4.34 0 3.55-3.84 2.7-5.72 2.27 2.24 5.94 4.94-1.1 9.1 2.06a3.55 3.55 0 0 1 1.49 4.34c1.41 1.55 3.23 2.65 5.26 3.16.39-.39 1.14-.75 1.17-1.56a4.22 4.22 0 0 1 4.19-2.7c1.66.76 2.58 2.55 2.24 4.34-2.7 5.47 5.3 3.2 7.11 6.75.32 6.68 4.94-.36 7.96.85 2.67-.36 3.55 2.77 4.51 4.37 1.85 5.9 5.33-1.14 7.96-.71 3.8-.36 3.77 3.95 6.01 5.94 3.02 1.21 4.59-3.09 7.61-2.31s3.55 3.55 4.9 5.54a5.34 5.34 0 0 0 4.94-1.92c2.49-.47 5.07.12 7.11 1.64.36 1.95-1.17 3.55-1.56 4.69-2.31 1.14-4.55-.43-6.82-.46-1.17 1.56-2.31 4.69-4.98 3.55s-.71-4.34-3.73-5.54c-4.51-3.16-4.98 5.05-9.53 3.06-3.55-.43-.71-4.3-3.38-5.51-4.51-3.55-4.98 4.27-9.53 2.67-3.8 0-1.1-4.73-4.12-5.94-4.51-3.16-4.19 4.27-8.35 2.67-3.55 0-2.63-3.95-4.12-5.54-4.12-4.34-4.98 3.09-9.13 1.88-1.53-.43-3.55-2.38-2.63-3.98-2.2-7.11-7.11 0-10.66 0-3.55-.82-1.49-4.73-3.55-6.72-3.77-4.34-5.72 2.31-8.78 2.67-1.53 0-2.63-1.99-2.24-3.95.39-1.95 2.31-1.53 4.19-1.14.39-.78 1.53-.36 1.14-1.56-2.63-4.73-4.94 1.92-8.74-.46-4.16-.43-1.85-5.51-4.87-6.72-1.88-1.6-4.19.36-4.94 1.92-5.33 2.31-4.12-4.76-6.79-6.75-5.33.36-2.59-5.9-6.4-7.89-3.02-2.38-4.19 3.87-7.11 2.27-3.55-.82-.32-4.73-2.59-6.29-4.94.36-4.9-5.15-7.11-8.32-4.94.36-3.73-5.51-7.54-7.11-1.14-1.6-2.27.36-3.06 1.14a2.95 2.95 0 0 1-4.15-.38c-.01-.02-.03-.03-.04-.05a4.114 4.114 0 0 1 2.35-5.86c-1.88-3.55-6.08 1.49-7.96-2.81.82-4.73-1.85-5.9-5.26-7.5-.32-5.9-6.75-6.75-8.64-11.87-1.85-3.91-3.8 1.53-6.47.32a4.78 4.78 0 0 1-2.59-5.51c-.36-1.17-1.53-.43-2.67-.82a2.63 2.63 0 0 0-1.53 2.74 180 180 0 0 0 17.17 31.56c5.69 7.73 11.83 15.12 18.38 22.14 2.63 3.55 6.4 4.76 8.28 8.32 28.22 26.98 62.63 42.65 99.52 50.79 5.69 0 10.66 4.02 15.92 1.71 5.65 3.98 14.22.92 20.12 3.34 3.09-.98 6.4-.98 9.49 0 4.94-1.92 11.37.5 15.96-1.81 10.13-.78 20.17-2.4 30.03-4.83 7.84-1.62 15.58-3.65 23.21-6.08 4.19-2.7 9.53-3.06 13.33-6.15a186.5 186.5 0 0 0 51.18-32.49c5.16-4.16 9.79-8.94 13.79-14.22 14.22-13.61 24.6-30.78 33.87-47.56 2.35-8.99 7.78-16.81 9.35-26.2 1.13-3.12 3.08-7.84-1.93-5.11m-244.89 50.97c1.22-.52 2.63.03 3.16 1.24.29.83.16 1.74-.36 2.45-.44.61-1.14.96-1.88.96-.36-.05-.71-.2-1-.43 0 0-1.53-1.39-1.56-1.53a2.35 2.35 0 0 1 1.67-2.74zm-7.11 5.8c.8.06 1.48.61 1.71 1.39.14.49.14 1.01 0 1.49-.52.6-1.32.88-2.1.75-.32 0-.62-.13-.85-.36-.62-.57-.82-1.46-.5-2.24.41-.53.98-.91 1.64-1.07zm-7.11-9.57c.91-.78 2.15-1.05 3.31-.71 1 .38 1.7 1.31 1.78 2.38q.015-.09 0-.18.03.105 0 .21c.05.33.05.67 0 1 .02 1.08-.59 2.06-1.56 2.52-.41.09-.83.09-1.24 0l-2.77-.64s-.64-1.71-.6-1.42c-.29-1.18.11-2.41 1.03-3.2zm-3.02 15.39a1.99 1.99 0 0 1 2.2-.92c.32 0 .85 1 .96 1.32.15.53.15 1.1 0 1.63-.52.62-1.34.9-2.13.75-.3 0-.6-.11-.82-.32-.65-.65-.77-1.67-.28-2.45zm-2.06-10.37c.86.37 1.41 1.23 1.39 2.17.03-.15.03-.31 0-.46.71 1.53-.18 2.42-1 3.23-.22.22-.51.33-.82.32-1.02.08-2.03-.33-2.7-1.1-.39-.53-.5-1.24-.21-1.21-.38-.86-.18-1.87.5-2.52.78-.63 1.84-.8 2.77-.43zm-7.11-10.24c.38-.12.79-.12 1.17 0 1.53.22 2.86 1.18 3.55 2.56v3.09c-.9.85-1.87 1.63-2.88 2.35a3.74 3.74 0 0 1-4.11-3.32c-.01-.08-.01-.16-.02-.24a4.84 4.84 0 0 1 2.38-4.48zm-24.53 6.61c.02-.5.09-1 .21-1.49a3.895 3.895 0 0 1 2.59-3.55l3.8.68 1.71 2.63v.21c.04 1.48-.54 2.91-1.6 3.95-.72.6-1.67.85-2.59.68a4.43 4.43 0 0 1-4.05-3.09h-.07zm8.92 11.48c-1.77-.1-3.2-1.5-3.34-3.27-.57-2.56 1.53-3.27 3.06-3.55s3.73 0 3.73 3.09l-1.17 2.91zm5.62 8.21h-2.31s-1.78-2.17-1.78-2.24a3.2 3.2 0 0 1 2.31-4.05c1.46-.35 2.98.24 3.8 1.49.22.22.33.51.32.82.07.96.04 3.41-2.27 3.98zm.28-14.82c-.42-.43-.65-1-.64-1.6.02-.31.08-.63.18-.92l-.21-1.03c.67-.64 1.37-1.25 2.1-1.81 1.01-.33 2.12-.19 3.02.39.71.52 1.12 1.36 1.1 2.24.01-.09.01-.19 0-.28v.32c.47 1.48-.35 3.06-1.83 3.53l-.09.03c-1.21.34-2.51.01-3.41-.85h-.22zm7.75 9.06a3.28 3.28 0 0 1-2.99-2.35c.01-1.32 1-2.42 2.31-2.56 1.1-.22 2.19.4 2.56 1.46q.03.18 0 .36c.18 1.32-.57 2.6-1.81 3.09zm1.92 7.11a2.314 2.314 0 0 1 1.06-3.09c1.25-.57 2.74-.19 3.55.92.06.2.06.41 0 .6 0 2.06-.78 3.09-1.78 2.95-1.1.78-2.06-.39-2.77-1.35zm7.11 10.67-1.92-.64c-.56-.21-.97-.69-1.1-1.28 0-2.27.78-3.55 2.31-4.19.89-.31 1.87-.17 2.63.39.72.52 1.14 1.35 1.14 2.24v-.28c.01.09.01.19 0 .28q.03.3 0 .6c.01.79-.29 1.55-.82 2.13a2.4 2.4 0 0 1-2.24.71zm9.06 5.22-1.39 3.34c-.62.26-1.23.56-1.81.89-1.18.28-2.42 0-3.38-.75a3.91 3.91 0 0 1-1.39-3.13 4.09 4.09 0 0 1 2.84-3.8c2.3-.51 4.59.93 5.12 3.23.04.14.07-.04 0 .18v.04zm1-11.94c-.31.36-.77.56-1.24.53-.4.06-.81.06-1.21 0a2.69 2.69 0 0 1-.53-3.16c.21-.43 1.28-.43 1.78-.36s1.46.75 1.53 1.24c.05.59-.06 1.18-.32 1.71v.04zm.6 7.82c-.2-1.06.23-2.14 1.1-2.77a2.92 2.92 0 0 1 2.95-.25 2.31 2.31 0 0 1 1.24 2.1c0 2.27-1.21 3.09-2.31 3.06-1.35-.04-2.53-.9-2.99-2.17v.03zm7.86 11.62-2.95-1.07-.82-2.06c0-2.35 1.24-3.84 2.7-3.77l2.31.18 1.74 2.17c.03.27.03.55 0 .82.14 1.85-1.42 2.84-3.02 3.7zm7.11 7.61c-.87.82-2.12 1.07-3.23.64-.92-.21-3.38-.78-2.91-3.16 0-1.73 1.08-3.28 2.7-3.87 1.85-.29 3.65.77 4.3 2.52q.015.105 0 .21c.3 1.28-.02 2.62-.85 3.63zm0-36.9c-.73.08-1.46-.14-2.03-.6-.41-.63-.41-1.44 0-2.06.28-.5 1.64-.39 2.17 0s1.53 1.14 1.35 1.67c-.3.6-.93.98-1.6.96zm3.55-12.65c-1.46.5-2.91-.21-3.77-2.31 0-1.32 0-3.55 2.31-4.23 1.3-.11 2.58.31 3.55 1.17.35.44.54 1 .53 1.56.01.14.01.28 0 .43q.03.285 0 .57c.01.64-.21 1.27-.6 1.78-.51.62-1.26.98-2.06 1zm2.28 6.68c-.37-1.17.21-2.44 1.35-2.91 1.08-.27 2.2.31 2.59 1.35v-.21c.09.08.16.18.21.28.21.24.33.54.36.85-.06.65-.38 1.26-.89 1.67q-.555.3-1.17.39c-.97.37-2.06-.12-2.43-1.1-.04-.12-.08-.24-.1-.36zm8.06 43.19-.39 2.24c-.71.61-1.45 1.17-2.24 1.67l-3.55-.92c-.21-.64-.46-1.27-.75-1.88-.22-.97.01-1.99.64-2.77.56-.73 1.43-1.15 2.35-1.14a3.76 3.76 0 0 1 3.8 2.77s.11.14.11 0zm2.53-46.21c-1.49 0-3.02-.96-2.95-2.38a2.63 2.63 0 0 1 .85-2.91c.92-.74 2.19-.86 3.23-.32.78.46 1.24 1.3 1.21 2.2v.36c-.04 1.43-1 2.67-2.38 3.06zm5.44 7.5c-.36.18-.64.64-.96.43-.75-.43-1.46-.91-2.13-1.46-.42-.76-.25-1.7.39-2.27.88-.61 2.04-.61 2.91 0 .26.35.47.74.64 1.14.34.85-.07 1.82-.92 2.17zm9.73-7.29-1.49 2.74c-.21.39-.39.32-.82.32-1.49 0-2.63-1-2.56-1.95-.44-1.39.33-2.86 1.72-3.3.01 0 .02 0 .02-.01.54-.15 1.11-.02 1.53.36l1.49 1.39c.36.32.32 0 .07.46zm3.95 10.2c-.52.62-1.33.92-2.13.78-.32 0-.63-.13-.85-.36-.67-.64-.82-1.65-.36-2.45a1.99 1.99 0 0 1 2.2-.92c.36 0 .85 1 1 1.32.2.52.24 1.09.14 1.63m2.49-12.19c-1.46.46-2.88-.21-3.73-2.27-.18-1.57.77-3.06 2.27-3.55l3.09.89.68 1.85a3.75 3.75 0 0 1-2.31 3.06zm5.76 7.36c-.48.35-1.04.56-1.64.6-.74.03-1.44-.35-1.81-1-.2-.29-.35-.62-.43-.96 0-.72.4-1.39 1.03-1.74.72-.4 1.59-.4 2.31 0 0 0 .43.53.5.6.57.71.59 1.72.04 2.45zm-139.97 5.23c-.51.7-1.33 1.11-2.2 1.1-.93-.43-1.8-.96-2.59-1.6-.46-1.78.51-3.61 2.24-4.23 1.49 0 3.02.89 3.02 2.31q.03.285 0 .57c.04.65-.12 1.3-.47 1.85m40.3 32.23-.21.28v-.21c-.71 1.24-1.67 1.35-2.95 1.21a2.886 2.886 0 0 1-.94-3.96c0-.01.01-.01.01-.02.33-.76 1.09-1.24 1.92-1.21 1 .09 1.87.74 2.24 1.67.05.28.05.57 0 .85-.04.49-.24.95-.57 1.32 0 0 .43.14.46.07zm16.78 12.62c0 .43-.75.39-1.21.39a1.8 1.8 0 0 1-1.28-.96c-.51-1-.15-2.24.82-2.81.43-.21 1.21 0 1.56.46.36.46.78 1.1.6 1.56zm14.22 1.74c0 .82 0 1.81-1.95 2.63-.64 0-2.63 0-2.52-1.53a2.43 2.43 0 0 1 .71-2.81c.8-.69 1.94-.83 2.88-.36.59.35.94.99.92 1.67q.015.18 0 .36zm12.51 5.33q-.945.36-1.92.6c-.95.23-1.91-.31-2.2-1.24-.44-1.76.53-3.57 2.24-4.19.96 0 2.63.82 2.63 2.35zm12.76 3.06v-.32c0 .43-.85.71-1.28.82-.55.08-1.1-.07-1.53-.43-.42-.68-.5-1.53-.21-2.27.11-.42.35-.79.68-1.07.78-.46 1.78-.2 2.24.58.06.1.11.2.14.31 0 0 0 .21 0 0s1 1.17.04 2.38zm52.07-65.54c-.44.72-1.19 1.19-2.03 1.28a2.83 2.83 0 0 1-2.59-2.06 2.1 2.1 0 0 1 .75-2.17c.84-.66 1.98-.79 2.95-.36.72.35 1.18 1.08 1.17 1.88.01.48-.03.96-.14 1.42h-.11zm3.55 9.06c-.4.24-.86.34-1.32.28-.69-.19-1.23-.73-1.42-1.42-.07-.84.29-1.66.96-2.17.59-.31 1.29-.31 1.88 0 .59.54.87 1.34.75 2.13.04.5-.5.96-.75 1.17zm4.62-13.04c-.48.35-1.05.57-1.64.64-1.3.27-2.63-.26-3.38-1.35a2.2 2.2 0 0 1 0-.96v-.92c0-.89 0-2.49 1.78-2.91a3.33 3.33 0 0 1 2.99.5c.64.45 1.05 1.17 1.1 1.95.02.11.02.21 0 .32v-.18c.26.92.04 1.9-.57 2.63zm4.98 6.22-1.03 1.88c-.21.36-.46.39-.89.39-1.85 0-2.24-.85-2.24-1.56s.21-2.03.75-2.13l1.67-.32 1.56 1.07c.6.39.57.18.28.68zm8.17-3.56c-.45.7-1.23 1.13-2.06 1.14-.38-.06-.74-.22-1.03-.46 0 0-1.49-1.39-1.53-1.46-.37-.85-.17-1.84.5-2.49.81-.72 1.96-.9 2.95-.46.88.38 1.44 1.25 1.42 2.2.03-.15.03-.31 0-.46.01.15.01.31 0 .46.01.14.01.28 0 .43.06.4.01.8-.14 1.17zm8.53-4.58c-.41.61-1.08.99-1.81 1.03-.82.27-1.71.11-2.38-.43a2.95 2.95 0 0 1-1.28-2.31c-.34-.99-.05-2.09.75-2.77 1-.81 2.36-1.01 3.55-.53 1 .45 1.64 1.46 1.6 2.56q.03.3 0 .6c.12.66 0 1.34-.32 1.92zm.79 6.29c0 .5.82 2.03 1.32 2.13-1.14-.21-1.21-2.06-1.21-2.06zm1.88.78c-.39.78-.75-.39-.75-.78.85-.32 1.24.07.85.85zm10.02-4.12c-.34.34-.72.64-1.14.89-.62.36-1.37.36-1.99 0-.65-.4-1.06-1.09-1.1-1.85-.22-.83.07-1.71.75-2.24.75-.56 1.74-.67 2.59-.28.71.36 1.15 1.09 1.14 1.88.04-.15.04-.31 0-.46.02.15.02.31 0 .46.01.14.01.28 0 .43.07.42.02.85-.14 1.24zm8.07-3.95c-.36.28-1.03.57-1.35.28-.8.28-1.68.16-2.38-.32-.54-.37-.89-.98-.92-1.63a2.73 2.73 0 0 1 1.62-3.51c.04-.01.08-.03.12-.04 1.53-.75 2.77.53 3.55 1.42.21.22.33.51.32.82.17 1.09-.14 2.21-.85 3.06zm1.42 6.05v-.53c-.01.17-.01.35 0 .53.08.61.31 1.18.68 1.67a1.91 1.91 0 0 1-.57-1.6zm2.17 0c0 .28 0 .53-.36.6-.14.06-.29.06-.43 0a.7.7 0 0 1 0-.21c0 .21-.25.25-.28.5v-.85l.21.39q.015-.195 0-.39v-.28h.25s.71.21.75.78v-.6.6zm-.53-12.27c-.04-.43-.04-.85 0-1.28 0-1.46 0-3.55 2.31-4.27 1.33-.1 2.64.41 3.55 1.39.44.54.68 1.22.68 1.92q.015.3 0 .6.03.375 0 .75c.01 1.47-.99 2.75-2.42 3.09a3.56 3.56 0 0 1-4.02-2.06zm8.53 9.74a2.72 2.72 0 0 1-2.52-1.85c-.55-.88-.29-2.04.59-2.6.06-.04.12-.07.19-.1 1.14-.55 2.52-.13 3.16.96q.03.48 0 .96c.38 1.13-.2 2.36-1.32 2.77zm9.24-5.36c-.18.39-.46.36-.89.36-1.16.15-2.29-.43-2.84-1.46a2.15 2.15 0 0 1 .43-2.45c.8-.85 2.02-1.16 3.13-.78.79.34 1.28 1.13 1.24 1.99zm8.07-4.48c-.82.43-2.1.57-3.8-1.35-.5-.89-.39-2 .28-2.77.91-.85 2.22-1.1 3.38-.64.89.32 1.5 1.15 1.53 2.1.02-.14.02-.28 0-.43.04.15.04.31 0 .46.39.99-.5 1.81-1.39 2.63m7.11-4.13a3.73 3.73 0 0 1-3.38-2.45c-.53-2.42.39-4.37 2.27-4.83 1.1-.29 2.28.05 3.06.89.21 0 1 .89 1.03 1.17.37 1.45.11 2.98-.71 4.23-.6.59-1.43.89-2.27.82zm6.68 6.4c0 .28 0 .25-.25.36l-1.39.53c-.42.26-.96.26-1.39 0-1.39-1.42-.71-2.52-.46-2.84.69-.78 1.84-.96 2.74-.43.75.46 1.1 1.36.85 2.2zm8.46-5.58c0 .28-.32.78-.6.89l-2.03.75c-.43 0-.5 0-.82-.36-.62-.57-.94-1.4-.85-2.24 0-.64.53-1.17 1.71-1.63 1.07-.15 2.11.45 2.52 1.46.13.28.19.58.18.89zm7.11-3.55c-.66.39-1.47.39-2.13 0a2.08 2.08 0 0 1-1-1.81c-.33-.9.13-1.9 1.03-2.24 1.11-.43 2.37.02 2.95 1.07.02.3.02.59 0 .89.13.72-.18 1.44-.78 1.85zm8.39-5.01c-.79.43-1.74.43-2.52 0-.52-.26-.87-.77-.92-1.35-.42-.93-.16-2.03.64-2.67.88-.59 2.03-.59 2.91 0a2.1 2.1 0 0 1 .89 2.24c.01-.09.01-.19 0-.28.07 1.67-.75 2.06-.92 1.92zm9.41-5.48c-.34.52-.91.85-1.53.89-1.47.41-3.01-.36-3.55-1.78q-.03-.57 0-1.14c-.22-1.49.58-2.95 1.95-3.55a4.16 4.16 0 0 1 3.27 1.39c.37.47.57 1.04.57 1.63.01.17.01.33 0 .5q.015.285 0 .57c-.08.52-.32 1-.68 1.39zm9.71 3.13a2.07 2.07 0 0 1 .28-2.42c-.14.16-.2.36-.18.57.02.5.17.99.43 1.42 0 0 .25 0 .39.25l-.28-1.03c0 .18.18.21.21.32a1 1 0 0 1 .21-.71c.46 0 .6 0 .6.18.1.07.17.17.21.28.08.09.08.23 0 .32-.03.09-.03.19 0 .28-.22.11-.49.11-.71 0v-.18c-.03.21-.03.43 0 .64.39.39.89.89 1.24.75-.84.48-1.92.18-2.4-.67m11.55-5.55c-.28.6-.71 1.53-1.71 1.67-.75.06-1.49-.26-1.95-.85-.31-.53-.48-1.13-.5-1.74 0-.68.57-1.24 1.74-1.74 1.08-.16 2.12.44 2.52 1.46.05.39-.04.77-.25 1.1zm7.11-3.55c-.31.02-.62.02-.92 0-.89.24-1.81-.24-2.13-1.1-.44-.93-.3-2.02.36-2.81a2.22 2.22 0 0 1 2.2-.82c.8.24 1.38.94 1.46 1.78v.32c.32.96-.08 2.02-.96 2.52v.11zm8.03-4.66c-.5.07-1.02.01-1.49-.18-.57-.21-2.27-.82-1.56-1.92a2.32 2.32 0 0 1 .21-2.7c.8-.74 1.96-.93 2.95-.5.99.37 1.64 1.32 1.64 2.38-.03 1.2-.71 2.29-1.78 2.84zm-25.98-2.48c-.75-1.17-1.49-2.38-3.02-2.38a3.545 3.545 0 0 0-1.92 3.91 4.42 4.42 0 0 0 4.16 1.99c-.39-1.18 1.53-1.96.78-3.52m-252.78 29.82a3.56 3.56 0 0 0 2.31-3.13 4.59 4.59 0 0 0-4.12-3.16c-1.53.39-2.31 2.35-2.31 3.91a3.794 3.794 0 0 0 4.12 2.38m-5.58-10.28c.39 0 1.14-.75.78-1.92s-2.27-.43-2.67.75c.35.73 1.08 1.18 1.89 1.17m34.15 2.28c.39 0 1.14-.78.78-1.95-.39-.43-.39-.82-.75-.82-1.56.74-1.56 2.38-.03 2.77m-20.54 2.17c.39-.78 1.14-1.17 1.17-2.35.04-1.17-1.1-1.95-2.24-2.38-.99.79-1.66 1.89-1.92 3.13.71.96 1.46 1.99 2.99 1.6m-21.65.99c.39-.39 1.53-1.17 1.53-1.95-.75-2.35-3.77-2.38-3.8.36.37.93 1.27 1.55 2.27 1.59m55.41 1.67c.78-.78 2.67-1.56 2.31-3.13-.36-1.56-3.55-3.16-4.16-.82-1.52 1.18.36 3.53 1.85 3.95m-63.4 2.95c.46-.6.85-1.26 1.14-1.95-.75-1.21-3.55-1.99-3.02.36.35.78.74 1.59 1.88 1.59m12.83 4.84c1.53-.78 3.06-1.95 2.7-3.91a3.31 3.31 0 0 0-3.55-1.99 3.56 3.56 0 0 0-2.31 3.13c.99 1.17 1.66 2.73 3.16 2.77m-6.86 3.13c.3-.46.44-1.01.39-1.56-.36-.78-1.14-1.95-2.27-1.6-1.14.35.38 2.69 1.88 3.16m237.21-29.26c.75 0 1.14-1.17 1.17-1.95-.75-.78-1.14-1.6-1.88-1.6-.78.78-2.27 1.14-1.92 2.31.36 1.17 1.49 2.42 2.63 1.24m7.64-5.01c.39-.39 1.17-.78 1.17-1.56-.29-.62-.86-1.07-1.53-1.21-2.27.78-.77 2.38.36 2.77m-37.57 12.19c.75-.39 1.92-1.56 1.53-2.74a2.24 2.24 0 0 0-3.03-.92c-.63.34-1.07.96-1.16 1.67.5 1.07 1.5 1.81 2.66 1.99m-20.65-.57c-.39 0-.75-.78-1.14-.78s-1.53 1.17-.39 1.95c.86.15.86-.81 1.53-1.17m87.9-18.02c.75-.78 1.53-1.17 1.53-1.95-.75-2.38-3.55-1.6-3.8.36.39.78 1.1 2.38 2.27 1.59m-195.81 27.23c.39-.39 1.92-.78 1.53-1.95a2.08 2.08 0 0 0-1.88-1.17c-.75.39-1.53 1.17-1.14 1.95s.75 1.13 1.49 1.17m204.59-34.23c-.36-1.56-2.27-.78-1.92.78.39.39.75.78 1.14.78.39.01 1.17-.74.78-1.56m-147.11 33.16c-.75-.39-1.14-1.56-1.88-1.56-.75 0-1.92 1.95-.78 2.74.99 1.56 2.16-.36 2.66-1.18m-22.93 3.34a2.17 2.17 0 0 0 1.92-2.35 2.21 2.21 0 0 0-2.9-1.14c-.63.27-1.09.83-1.26 1.49.29.8 1.07 2 2.24 2m34.91 3.06c1.3-.86 2.03-2.36 1.92-3.91-.75-.78-1.88-2.38-3.55-1.99-.78.78-2.31 1.92-1.92 3.55.38 1.64 2.02 2.74 3.55 2.35m-56.59-.92c1.46-.17 2.51-1.5 2.34-2.96l-.03-.17c0-1.17-1.49-1.56-2.63-1.99a2.703 2.703 0 0 0-1.92 3.13c.36.81 1.49 1.99 2.24 1.99m85.87-6.65c.75-.39 2.27-1.14 1.92-2.35-.36-1.21-1.49-2.35-2.63-1.6s-1.92.75-1.53 1.95c.2 1.11 1.13 1.94 2.24 2m-21.64 1c.78-.39 1.53-.78 1.53-1.95-.75-1.95-3.02-.82-3.06.75.39.38.78 1.66 1.53 1.2m162.15-43.22c.47.86 1.31 1.45 2.27 1.6 1.14 0 1.53-1.56 1.53-2.35-.75-3.16-4.3-1.78-3.8.75" style="fill:#010101"/><path d="M522.73 575.81c128.99 0 234.83-103.08 245.82-235.65l-30.03 9.42C721.53 447.04 631.46 521.5 522.73 521.5c-93.12 0-172.6-54.63-204.12-131.51h-32.59c30.31 107.38 124.68 185.82 236.71 185.82M483.14 120.04c-1.88 1.49-8.32 8.14-10.24 5.22-1.35-1.99 1.71-4.55 1.71-4.55l-26.23-3.55-4.55 13.72 5.69 3.98-6.54 37.36 16.56 10.66 14.82-16.53-6.18-5.94s-4.19 4.16-5.79.32c-.46-1.14 1.95-7.46 3.55-12.26s5.19-13.97 8.57-8.53c2.3 4.2 4.09 8.67 5.33 13.29l9.6-12.05-1.71-17.77c-.01.01-2.85-1.87-4.59-3.37m224.6-5.15c-2.06 1.28-9.1 7.11-10.66 4.12-1.14-2.1 2.17-4.27 2.17-4.27l-22.57-5.83-5.9 12.9 5.3 4.41-10.2 35.76L681.29 174l16.39-14.68-5.58-6.36s-4.59 3.55-5.79-.25c.17-4.06 1.22-8.04 3.06-11.66 2.2-4.48 5.65-11.05 8-7.39 2.07 4.15 3.36 8.64 3.8 13.26l10.66-10.66v-17.38c-.01-.01-2.53-2.35-4.09-3.99M423.89 86.07c-6.23.43-10.93 5.83-10.49 12.06.43 6.23 5.83 10.93 12.06 10.49 5.91-.41 10.51-5.32 10.52-11.25-.24-6.45-5.64-11.5-12.09-11.3m-1.64 78.19c-2.27-2.27 8.49-35.54 8.49-35.54l-27.37-7.43-3.55 13.12 5.69 5.72-3.55 39.31s15.39 9.13 15.96 9.13 13.68-19.94 13.68-19.94l-5.12-5.69s-1.95 3.7-4.23 1.46zm230.22-87.9c-6.45-.2-11.85 4.85-12.08 11.3-.45 6.68 4.6 12.46 11.28 12.91s12.46-4.6 12.91-11.28-4.6-12.46-11.28-12.91c-.28-.01-.56-.02-.83-.02m-1.64 76.95c-2.27-2.2 8.49-34.55 8.49-34.55l-25.09-7.75-3.55 12.72 5.72 5.54-4.83 38.03s14.61 9.42 15.32 9.42 13.68-19.34 13.68-19.34l-5.26-5.54s-2.2 3.55-4.51 1.46h.03zm-73.64-72.54-26.94 51.15-2.52-2.17c-.34-14.61.19-29.24 1.56-43.79l-26.8 16.42-2.45 20.12a66 66 0 0 0-4.62 6.47c0-6.86-1.28-54.38-1.28-54.38l-25.09 17.52.57 10.95 5.69.57c2.74 24.06 4.94 55.41 5.62 64.44 5.25 3.41 10.8 6.31 16.6 8.67 0-.57 13.58-31.03 13.58-31.03l5.08 31.99 18.3-9.1s27.58-65.04 32.81-72.93c3.3-.82 6.67-1.32 10.06-1.49l1.99-15.6zm34.4 70.73c2.68-12.49 6.39-24.73 11.09-36.61l-23.81-4.76-11.05 12.55 5.72 3.55c.91-.86 1.9-1.63 2.95-2.31 2.91-1.71 3.98 2.06 1.88 5.47-10.66 7.39-23.46 15.92-32.49 27.79l8.53 19.66 22.71-7.22 10.66 8.46 13.65-16.56s-2.7-4.9-4.12-7.54c-4.69 3.74-6.5.33-5.72-2.48m-16.35 6.4c-4.31 1.94-8.72 3.63-13.22 5.08-1.28.36-3.2.92-3.2-.46 0-5.4 18.62-17.45 18.62-17.45zm-210.98 24.35c-1.95-15.67 1.49-83.85 1.99-84.84-2.67.85-25.66 7.39-25.66 7.39l-29.04 76.92-7.39-1.14-5.47 12.94 22 14.39 11.41-30.21 12.23 2.84c1.14 11.94 3.73 25.06 3.73 25.06l25.06-12.55v-11.91c-.01 0-7.05.93-8.86 1.11m-21.33-18.17-6.86-1.56 8.53-23.78z" style="fill:#010101"/><path d="M371.92 483.58c.04-.1.04-.22 0-.32l-2.56-2.67a.43.43 0 0 0-.46 0l-7.61 4.12-.57.36.39-.64 4.48-7.11q.03-.105 0-.21c.03-.08.03-.17 0-.25l-2.67-2.77a.39.39 0 0 0-.46 0l-7.82 4.62.36-.53 4.34-7.39q.015-.09 0-.18c.03-.08.03-.17 0-.25l-2.67-2.77a.44.44 0 0 0-.32 0 .38.38 0 0 0-.28.21l-6.9 13.54c-.09.13-.09.3 0 .43l2.35 2.45c.14.1.32.1.46 0l7.5-4.3.96-.57-.6.92-4.59 7.36q-.03.105 0 .21c-.03.08-.03.17 0 .25l2.42 2.49c.13.09.3.09.43 0l13.72-6.43c.18-.13.22-.38.1-.57m19.94 20.15c.08.03.17.03.25 0l1.56-1.99c.14-.15.14-.38 0-.53l-11.16-8.67a.387.387 0 0 0-.53 0l-1.56 1.99q-.03.105 0 .21c-.03.08-.03.17 0 .25l3.84 2.99-7.11 9.03c-.03.08-.03.17 0 .25-.03.08-.03.17 0 .25l2.88 2.24c.15.14.38.14.53 0l7.11-9.03 3.84 2.99c.09.06.21.08.32.04h.03zm-13.4-14.85-2.7-2.38h-.28a.34.34 0 0 0-.28 0l-9.49 10.66c-.14.15-.14.38 0 .53l2.7 2.38c.08.03.17.03.25 0 .08.02.17.02.25 0l9.53-10.66c.14-.15.14-.38 0-.53zm294.44 11.3a.387.387 0 0 0-.53 0l-6.47 5.15-7.11-8.92a.36.36 0 0 0-.25 0 .34.34 0 0 0-.28 0l-2.84 2.27c-.14.15-.14.38 0 .53l8.96 11.23c.15.14.38.14.53 0l9.63-7.68c.03-.08.03-.17 0-.25a.28.28 0 0 0 0-.28zm-16.38 7.11a7.26 7.26 0 0 0-5.79-3.55c-2.12-.09-4.21.57-5.9 1.85a8.97 8.97 0 0 0-3.98 4.8 7.08 7.08 0 0 0 1.14 6.68 7.34 7.34 0 0 0 5.79 3.55c4.32-.04 8.2-2.64 9.88-6.61.23-.7.35-1.43.36-2.17a8.24 8.24 0 0 0-1.5-4.55m29.71-19.2a.35.35 0 0 0-.5-.03l-.03.03-6.61 6.15-2.03-2.17 5.72-5.33c.04-.09.04-.19 0-.28.04-.09.04-.19 0-.28l-1.67-1.81a.465.465 0 0 0-.57 0l-5.76 5.33-1.53-1.67 6.33-5.86c.04-.09.04-.19 0-.28.02-.08.02-.17 0-.25l-1.74-1.88a.35.35 0 0 0-.5-.03l-.03.03-9.24 8.57c-.14.15-.14.38 0 .53l9.77 10.66c.15.14.38.14.53 0l9.53-8.85c.03-.08.03-.17 0-.25.04-.09.04-.19 0-.28zm-32.41 25.17a4.13 4.13 0 0 1-1.95 2.74c-.95.7-2.14.99-3.31.78-2.43-.82-4-3.17-3.84-5.72.25-1.16.97-2.16 1.99-2.77.95-.7 2.15-.97 3.31-.75 1.21.33 2.25 1.12 2.88 2.2.62.84.98 1.84 1.03 2.88-.02.19-.05.38-.11.57zm-247.21-3.56a.34.34 0 0 0-.28 0 .4.4 0 0 0-.21 0l-2.77 4.27-5.26-3.13 2.77-4.27q.03-.105 0-.21a.36.36 0 0 0 0-.32l-3.02-1.95a.34.34 0 0 0-.28 0 .36.36 0 0 0-.25 0l-7.78 12.05c-.03.09-.03.19 0 .28q-.03.105 0 .21l3.02 1.95c.13.15.35.16.5.03l.03-.03 3.27-5.05 5.08 3.31-3.27 5.05q-.03.105 0 .21a.36.36 0 0 0 0 .32l3.02 1.95c.09.04.19.04.28 0 .08.02.17.02.25 0l7.78-12.05c.14-.15.14-.38 0-.53zm230.82 9.57-3.31.57-2.95.96-2.06.71c-.6 0-.82-.18-.96-.39-.23-.36-.23-.82 0-1.17l1.64-1.39 1.92-.68c.7-.13 1.41.18 1.78.78.14.12.35.12.5 0l3.06-1.67c.14-.15.14-.38 0-.53a4.5 4.5 0 0 0-3.8-2.24c-1.73-.04-3.45.4-4.94 1.28-1.69.79-3.08 2.1-3.98 3.73a4.25 4.25 0 0 0 0 3.98c.6 1.31 1.94 2.12 3.38 2.06l4.02-.89 1.81-.6 2.35-.57c.34-.06.68.09.85.39.21.36.36.92-.5 1.78l-1.67 1.17a4.1 4.1 0 0 1-2.84.71l-1.1-.85a.55.55 0 0 0-.5 0l-3.02 1.67c-.14.15-.14.38 0 .53a4.33 4.33 0 0 0 3.73 2.31c1.96.02 3.89-.52 5.54-1.56a9.37 9.37 0 0 0 4.09-3.84c.71-1.27.71-2.82 0-4.09a3.56 3.56 0 0 0-2.88-2.17h-.16zm60.82-46.67c-.92-.94-2.29-1.3-3.55-.92l-2.91 1.56-2.49 1.85-1.92 1.28c-.57.25-.85 0-1.03 0-.32-.28-.44-.74-.28-1.14l1.14-1.85 1.6-1.24c.58-.4 1.34-.4 1.92 0 .15.14.38.14.53 0l2.35-2.56c.04-.09.04-.19 0-.28.03-.08.03-.17 0-.25a4.44 4.44 0 0 0-4.34-.92 9.1 9.1 0 0 0-4.27 2.81 8.6 8.6 0 0 0-2.59 4.8c-.22 1.4.27 2.81 1.32 3.77a3.55 3.55 0 0 0 3.87.89l3.55-2.13 1.53-1.14 2.03-1.32c.53-.18.78 0 .92 0s.6.75 0 1.81l-1.21 1.67c-.61.81-1.49 1.37-2.49 1.56l-1.32-.43a.5.5 0 0 0-.5 0l-2.35 2.56c-.03.09-.03.19 0 .28-.02.08-.02.17 0 .25a4.41 4.41 0 0 0 4.3 1.03c1.88-.59 3.54-1.72 4.8-3.23a9.46 9.46 0 0 0 2.67-4.94c.24-1.36-.2-2.75-1.17-3.73z" style="fill:#fddb00"/><path d="M419.8 540.13c-1-.43-2.45-.28 2.35-12.58 6.29-16.17 8.14-14.75 8.85-14.47l10.38 4.3c7.11 2.95 7.11 6.08 6.29 8.17-1.42 3.55-6.79 3.8-7.11 4.83s4.98 6.47 2.77 12.12c-1.24 3.23-4.8 5.37-11.37 2.63zm10.1-9.24c-1.28 0-1.99 0-2.42 1.07-1.92 4.98-.64 6.26 2.63 7.61s6.15 1.53 7.11-1.07c.43-2.75-.47-5.55-2.42-7.54-.62-.11-1.26-.11-1.88 0zm6.61-4.48c1.42-.21 3.55-1.1 4.27-2.45.71-1.35-.92-2.67-2.45-3.31-3.95-1.64-6.33-1-8.28 4.12-.25.68-.68 1.46.46 1.95.8.22 1.63.28 2.45.18zm13.54 12.3c.97-5.81 6.47-9.73 12.28-8.76.39.07.78.15 1.16.26 5.88 1.64 9.32 7.73 7.69 13.61-.06.2-.12.41-.19.61-.93 5.81-6.41 9.77-12.22 8.83-.41-.07-.82-.16-1.21-.27-5.91-1.67-9.35-7.82-7.67-13.74.04-.18.1-.36.16-.54m15.99 3.55a6.01 6.01 0 0 0-3.25-7.85c-.1-.04-.2-.08-.3-.11-4.12-1.14-6.29 2.35-7.11 5.05a6.01 6.01 0 0 0 3.55 8.07c4.3 1.1 6.4-2.49 7.11-5.19zm29.65-4.97c1.78.28.75 7.61.25 10.95-1.92 12.83-2.91 12.05-6.01 11.55-4.48-.71-.78-2.13-3.2-2.49-.8.18-1.58.46-2.31.82a6.6 6.6 0 0 1-3.27.32c-3.55-.57-6.58-2.91-5.08-12.87 0-.6 1.92-11.02 3.55-10.66l3.95.64c.53 0 1.74 0 1.64.78a29.1 29.1 0 0 0-3.55 10.31c-.28 1.95-1.1 7.11 2.56 7.82 1.42.21 4.69.39 5.83-7.11.29-3.45.29-6.93 0-10.38 0-.46 1.03-.25 1.53-.18zm19.97 23.92c-.57 0-1.53 0-1.49-.6 1.59-3.85 2.49-7.96 2.67-12.12 0-2.52 0-5.69-2.99-5.79-1.64 0-5.05.71-5.3 7.68.03 3.39.31 6.78.85 10.13 0 .5-.75.43-1.21.43h-3.55c-1.6 0-2.27.53-1.92-8.81.6-15.99 2.06-14.93 5.4-14.79 1.53 0 3.09 0 3.06.75-.04.75-.43.75-.43 1.24-.04.35.21.67.56.71h.04c1.78-.68 3.65-1.1 5.54-1.24 1.21 0 6.22.39 5.86 9.67-.53 13.86-1.85 13.08-3.31 13.04zm12.58-9.99c-.86-6.72 3.89-12.86 10.61-13.72.26-.03.53-.06.8-.08 3.73-.25 6.54 1.21 6.68 3.2 0 1.07-.75 3.16-2.35 3.27-1 0-1-2.56-4.48-2.31-4.44.32-5.72 5.19-5.54 8.17a5.77 5.77 0 0 0 6.47 5.87 7.1 7.1 0 0 0 5.9-3.91c.21 0 .68.6.78 2.03.28 4.23-2.95 7.11-8.03 7.43-5.43.53-10.26-3.44-10.8-8.87-.04-.37-.05-.74-.05-1.11zm22.29-19.55c-.21-1.49 1.24-2.67 2.95-2.91 1.71-.25 3.55.43 3.55 1.92s-1.24 2.56-2.95 2.81-3.16-.36-3.55-1.85zm8.53 26.69c.96 0 2.27 0 2.13-1.24a61 61 0 0 1-3.55-14.22c-.25-2.15-.38-4.31-.39-6.47 0-.43 0-.5-1.92-.21l-2.35.36c-1.39.21-2.24-.85-.57 11.13s1.78 11.55 3.87 11.23zm22.21-4.58c-.53 0-1.46.46-1.6-.18.53-4.14.33-8.33-.57-12.4-.53-2.45-1.49-5.44-4.34-4.73-1.6.39-4.69 2.03-3.13 8.85.94 3.26 2.13 6.45 3.55 9.53 0 .5-.6.64-1.03.71l-3.55.89c-1.56.39-2.06 1.1-4.12-7.96-3.55-15.57-1.81-14.96 1.42-15.75 1.46-.36 2.95-.89 3.13 0s-.21.85 0 1.32c.04.33.35.56.68.52.04 0 .07-.01.1-.02 1.53-1.14 3.22-2.05 5.01-2.7 1.17-.28 6.08-1.32 8.14 7.71 3.06 13.51 1.56 13.15 0 13.47zm33.38-13.4c-2.92-4.56-8.99-5.9-13.55-2.98-.03.02-.07.04-.1.06-1.85.96-2.67 2.24-3.55 2.45-.49.02-.94-.26-1.14-.71-.32-1 1.99-3.09 4.23-3.95 6.08-2.24 7.5-6.9 6.33-10.34-1.17-3.45-3.55-3.55-3.87-4.48-.6-1.74 3.55-2.13 3.16-3.13a6.09 6.09 0 0 0-4.34-1.67c-1.6.6-1.67 4.05-3.55 4.76-.88.15-1.75.37-2.59.68-5.47 1.99-7.86 5.86-6.36 10.2 1.24 3.55 4.66 3.98 4.94 4.76s-4.19 3.02-2.84 6.9c.59 1.6 2.14 2.64 3.84 2.59-.47 1.72-.21 3.56.71 5.08 2.35 3.91 8.14 4.23 13.54 1.78 2.58-1.05 4.65-3.06 5.76-5.62.7-2.14.5-4.48-.57-6.47zm-20.69-11.3c-.61-2.03.54-4.17 2.57-4.78.07-.02.13-.04.2-.05a3.554 3.554 0 0 1 5.12 1.92c.63 2.03-.51 4.18-2.53 4.8-.08.02-.16.05-.24.07a3.556 3.556 0 0 1-5.08-2.03zm12.87 19.47c-2.34 1.58-5.52.96-7.11-1.38v-.01c-1.28-2.27-.21-4.87 2.81-6.4a5.157 5.157 0 0 1 7.11 1.39c1.42 2.38 0 4.94-2.77 6.33z" style="fill:#fff"/><path d="M119.99 64.13v69.59c-.5 18.52-30.28 15.25-30.28 15.25V48.78s29.79-3.16 30.28 15.35m484 269.17c-27.76 4.41-55.55 7.57-83.14 9.38l1.07 8.49c27.58-1.85 55.34-5.05 83.06-9.42zm2.77 24.24 1.03 7.57c-13.79 3.2-62.48 8.49-82.82 9.7l-.96-7.78c27.41-1.92 55.1-5.04 82.75-9.49m-.43-3.55c-27.65 4.41-55.38 7.64-82.92 9.53l-.92-8.6c27.58-1.85 55.34-5.05 83.03-9.42zm-2.77-24.42c-27.76 4.41-55.59 7.57-83.17 9.38l-1.03-8.32s15.11-2.91 14.22-16.31c-.25-1.99-2.99-22.96-3.55-26.27-1.64-9.99-13.36-6.82-13.36-6.82s-4.66-37.82-4.41-37.85c3.13-.43 12.08-1.32 10.88-11.16-1.07-8.64-3.8-28.61-3.8-28.61l52.18-6.08s2.2 20.05 3.27 28.68c1.21 9.85 10.09 8.21 13.22 7.86.28 0 4.94 37.78 4.94 37.78s-12.08 0-11.27 10.2c.39 3.31 2.84 24.31 3.09 26.3 2.35 13.22 17.77 12.05 17.77 12.05zM147.01 185.66H10.98V147.8s22.89 0 23.89-19.09v-59.6c-1-19.02-23.89-19.09-23.89-19.09V12.17H147s27.08.21 27.94 28.43v116.65c-.78 28.19-27.93 28.41-27.93 28.41M119.99 64.13c-.5-18.52-30.28-15.35-30.28-15.35v100.16s29.79 3.31 30.28-15.21zm63.16 91.28v28.43h45.92v-28.01a6.43 6.43 0 0 1-6.15-6.65v-16.85c0-13.33 13.76-13.76 13.76.75v5.08h25.73v-12.23c0-30.42-26.91-32.63-41.55-17.24v-9.38h-37.68v22.78c3.53.17 6.25 3.15 6.11 6.68v19.8c.22 3.55-2.48 6.6-6.02 6.82-.03.02-.07.02-.12.02m56.13 28.43h24.56v-27.69h-24.56zM89.71 48.78v100.16s29.79 3.31 30.28-15.21v-69.6c-.49-18.51-30.28-15.35-30.28-15.35m273.68 296.04-129.77.57c1.32 2.96 2.86 5.81 4.62 8.53l125.15-.57zm0 24.6v8.21H304.6v-7.96zm0-3.77-58.86.28v-2.88c-.54 1.03-1.2 2-1.95 2.88l-53.63.25a51 51 0 0 1-8.1-8.49l122.55-.57zm-109.22 4.26 44.39-.07a42.01 42.01 0 0 1-38 3.55c-2.19-.97-4.3-2.1-6.33-3.38zm99.73-47.45v-76.99l-49.26.18v14.61c-5.51-11.12-28.08-17.24-44.11-10.17-24.06 10.66-33.41 36.86-33.27 61.6a85.8 85.8 0 0 0 5.05 30.07l131.23-.6v-8.25c-5.55-.23-9.86-4.9-9.64-10.45m-59.96 10.42c-8.14 0-14.68-12.12-14.68-27.05s6.54-27.12 14.68-27.12 14.68 12.16 14.68 27.12-6.5 27.05-14.68 27.05m-76.38-.43s-24.49.43-24.88-14.96-.46-50.33 0-61.99c.57-20.19 23.78-19.41 23.78-19.41v-36.4h-70.41l-32.31 59.85-32.67-59.84H10.66v36.43s24.03-.82 24.6 19.41c.32 11.69 0 46.6 0 61.99S9.67 332.49 9.67 332.49v10.31l89.5-.43v-9.03s-11.94-.28-11.94-10.66v-21.54l26.52 33.62 26.34-33.62v21.68c0 10.27-11.98 10.66-11.98 10.66v8.89l89.5-.43zM9.49 371.16l89.53-.43v8.35H9.49zm0-24.6 89.5-.43v8.53l-89.5.39zm0 12.3 89.53-.39V367l-89.53.43zm208.11-4.69-89.64.28v-8.53l89.5-.43zm0 16.06v8.89h-89.64v-8.46zm0-3.76-89.64.36v-8.53l89.68-.28zm234.23-21.9-71.51.28v8.53l71.58-.32zm0 20.83-71.58.32v-8.53l71.58-.32zm0 3.77v8.35h-71.51v-8.03zm0-28.44-71.51.36v-8.42c5.51-.23 9.8-4.87 9.6-10.38v-30.92c.2-5.51-4.09-10.15-9.6-10.38v-35.54h58.86v14.61c22.82-23.99 64.8-20.58 64.58 26.94v18.98H463.8v-7.93c0-22.61-21.33-21.97-21.33-1.14v26.55c-.22 5.52 4.07 10.18 9.6 10.41zm561.15-157.21c0-.43-.28-.85-.43-1.28a995 995 0 0 1-101.97 55.38l3.73 7.11c34.3-16.25 67.63-34.5 99.81-54.63a30.6 30.6 0 0 0-1.14-6.58m0 19.73a974 974 0 0 1-93.19 51.25l-3.55-6.5a981 981 0 0 0 98.1-53.49v.64c-.17 2.74-.63 5.45-1.36 8.1m-65.72 12.12c-12.39 6.45-25.12 12.76-38.17 18.94l-4.51-8.53s30.92-16.24 36.33-19.23c1.39 2.78 3.09 5.4 5.05 7.82.37.36.76.69 1.17 1zm64.19-36.68c-14.69 9.19-30.09 18.2-46.21 27.01a8.2 8.2 0 0 0-1.07-3.55c-3.55-6.29-7.68-7.96-33.7.64-7.61 2.52-31.49 8.49-46.95-7.54a50.3 50.3 0 0 1-8.21-12.8c-10.66-23.53 8.64-43.18 21.08-50.61 5.69-3.55 61.56-31.99 61.56-31.99l19.34 36.22s-33.66 17.59-39.1 20.54c-1.1-1.21-2.38-4.73-4.9-5.58-5.72-1.88-16.88 4.51-16.71 9.77.11 1.87.8 3.67 1.99 5.12 2.24 1.81 6.72 3.02 21.33-2.38 51.36-19.69 65.44 1.17 71.41 15.14h.14zm-.53 30.25c0 .28-.25.6-.39.89a52.46 52.46 0 0 1-23.07 22.89c-5.79 3.16-49.76 26.48-61.92 32.74l-4.05-7.68a982 982 0 0 0 89.28-48.84zM765.14 315.82c22.98-7.3 45.5-15.2 67.53-23.71L829.9 285q-33.06 12.585-67.71 23.25zm135.95-52.57c-18.51 8.51-37.56 16.67-57.15 24.49l-2.81-7.11c19.6-7.68 38.69-15.76 57.3-24.24zm1.35 3.55 2.7 6.93c-9.85 5.05-47.24 20.69-56.87 24.88l-2.81-7.11a1417 1417 0 0 0 56.98-24.77zm-144.69 30.36c23.07-7.11 45.82-15.03 67.99-23.42l2.91 7.71c-22.11 8.39-44.73 16.14-67.85 23.25zm135.06-55.31c-18.6 8.44-37.74 16.49-57.4 24.17l-17.31-44.14c-7.11-18.59-27.69-11.98-20.05 7.71 3.23 8.32 6.72 16.95 9.67 24.88 3.55 8.92 12.97 6.11 12.97 6.11l3.73 9.81c-22.2 8.39-44.88 16.2-68.03 23.42l-2.88-7.75s8.14-5.47 5.01-13.97c-2.56-7.11-7.75-20.19-10.66-27.65-4.41-10.84-13.26-7.29-13.26-7.29l-12.8-33.2 54.77-21.33s5.37 13.12 5.37 13.58c4.83-10.66 20.22-23.57 34.73-27.08 33.16-8.03 42.23 15.82 59.96 57.83 1.37 4.67 6.27 7.35 10.94 5.98.56-.16 1.1-.38 1.61-.65zm4.3 11.02q-27.825 12.69-57.3 24.24l-2.99-7.64c19.62-7.65 38.75-15.71 57.4-24.17zM766.49 319.3c23-7.29 45.57-15.21 67.53-23.71l2.67 7.11c-6.26 2.49-60.99 22.5-67.14 24.45zm-93.73-3.16c-17.3 3.96-34.69 7.51-52.18 10.66-.25-.68-.46-1.39-.68-1.99a433 433 0 0 1-11.23-45c-11.23-67.03 101.48-81.75 113.24-36.5l9.35 34.12-66.61 16.95 4.73 17.42h.28a9.14 9.14 0 0 0 3.1 4.34m-11.87-38.11 21.54-5.33s-2.77-11.98-4.09-15.75c-3.95-11.3-23.42-6.26-21.15 5.15.68 4.28 3.7 15.93 3.7 15.93M734 291.08l-44.46 11.02 2.38 9.45c14.81-3.67 29.54-7.64 44.18-11.91zm6.12 23.95c-36.69 10.74-73.9 19.57-111.5 26.48 2.28 2.72 5.01 5.02 8.07 6.82 35.54-6.79 70.8-15.43 105.28-25.59zm-2.99-11.72a1099 1099 0 0 1-115.12 27.01c1.13 2.7 2.49 5.29 4.09 7.75 38.18-6.89 75.96-15.79 113.21-26.66zm-95.15 47.98a36.85 36.85 0 0 0 24.1 2.81c17.77-3.06 60.42-13.9 79.08-19.44l-2.1-8.21c-33.12 9.77-66.99 18.16-101.08 24.84" style="fill:#010101"/><path d="M894.12 245.26c-18.6 8.44-37.74 16.49-57.4 24.17l-1.35-3.55c19.64-7.65 38.78-15.71 57.4-24.17zM9.56 346.56l89.5-.43v-3.77l-89.5.43zm353.94-5.37-131.23.6c.46 1.28.92 2.52 1.46 3.77L363.5 345zm648.91-159.76-.6-1.49-.5-1.24c-14.69 9.19-30.09 18.2-46.21 27.01.13 1.05-.15 2.1-.78 2.95a30.66 30.66 0 0 1-13.22 7.11c-1.08.22-2.2.15-3.23-.21l-.57-.36c-12.39 6.45-25.12 12.76-38.17 18.94l1.74 3.31a994 994 0 0 0 101.97-55.38zM217.6 341.83l-89.64.39v3.77l89.5-.43zm540.25-44.74c23.07-7.11 45.82-15.03 67.99-23.42l-1.32-3.55c-22.2 8.39-44.88 16.2-68.03 23.42zm-21.57 2.59c-14.57 4.22-29.32 8.17-44.25 11.87l.85 3.55-11.94 3.09c-2.88.45-5.83-.24-8.21-1.92-17.3 3.96-34.69 7.51-52.18 10.66.43 1.1.85 2.27 1.35 3.55 38.85-6.93 77.31-15.95 115.2-27.01zm-284.35 41.09-71.62.32v3.77l71.55-.32zm151.63-11.2c-27.76 4.41-55.59 7.57-83.17 9.38l.46 3.55c27.58-1.81 55.38-4.98 83.14-9.38zm-385.93 24.56-89.68.32v3.77l89.68-.21zm521.67-42.72c-37.2 10.9-74.96 19.83-113.1 26.76.75 1.13 1.55 2.22 2.42 3.27 37.6-6.91 74.81-15.74 111.5-26.48zm-134.35 30.35c-27.72 4.37-55.48 7.57-83.06 9.42l.46 3.73c27.58-1.85 55.34-5.05 83.03-9.42zM451.86 353.1l-71.55.28v3.77l71.58-.32zm562.47-162.43v-.6a978 978 0 0 1-99.81 54.63l1.74 3.31a979 979 0 0 0 98.06-53.49c.08-1.29.08-2.57.01-3.85M9.53 358.82l89.53-.39v-3.77l-89.5.39zM897.04 252.8q-27.825 12.69-57.3 24.24l1.35 3.55c19.6-7.68 38.69-15.76 57.3-24.24zM363.5 353.46l-125.15.57c.82 1.28 1.67 2.52 2.59 3.73l122.55-.57zm398.69-45.21c23.06-7.11 45.65-14.95 67.78-23.53l-1.32-3.55c-22.11 8.58-44.73 16.42-67.85 23.53zM9.49 371.16l89.53-.43v-3.77l-89.53.43zM1012.66 204.1c0-.28 0-.53.18-.78a974 974 0 0 1-93.19 51.25l1.74 3.31a980 980 0 0 0 89.39-48.84c.74-1.63 1.37-3.3 1.88-5.01zM766.49 319.3c23-7.29 45.57-15.21 67.53-23.71l-1.32-3.55c-22.04 8.46-44.55 16.36-67.53 23.71zm-24.38 3.55c-34.48 10.17-69.74 18.8-105.28 25.59.39.25.75.53 1.17.75 1 .5 2.2 1.21 3.55 1.99h.25c34.09-6.68 67.96-15.07 101.08-24.88zm-135.78 31c-27.65 4.41-55.38 7.64-82.92 9.53l.46 3.73c27.55-1.88 55.23-5.12 82.89-9.56zm-388.7 12.58-89.68.39v3.77l89.53-.39zm234.27-1.07-71.58.32v3.77l71.58-.32zm449.19-102.11c-18.51 8.51-37.56 16.67-57.15 24.49l1.35 3.55a1144 1144 0 0 0 57.15-24.49zM254.21 369.88l44.36-.04a21.3 21.3 0 0 0 4.19-3.8l-53.63.25c1.63 1.35 3.34 2.6 5.12 3.73zm109.22-4.27-58.86.28v3.77l58.86-.25z" style="fill:#fddb00"/><g id="g6" style="fill:var(--logo-bw)" transform="matrix(.1 0 0 -.1 0 595)"><path id="path10" d="M15197.2 3981.17c-7.19-.83-32.34-3.87-55.28-6.63-306.5-35.1-579.57-196.23-738.49-435.85-142.06-213.92-194.02-484.49-144.82-752.86 80.15-435.3 423.41-745.12 888.28-801.78 70.48-8.84 217.79-9.67 289.09-2.21 210.32 22.66 370.62 86.23 519.04 206.73 45.05 36.76 111.66 100.88 144.82 141.23 110.83 132.94 71.86 335.52-80.15 415.4-82.91 43.94-167.76 44.22-253.16 2.76-30.96-15.48-46.16-27.08-90.65-70.48-92.03-89.55-163.34-134.32-252.89-158.09-39.52-10.5-51.68-11.61-123.54-11.88-95.35-.55-132.94 7.46-203.69 41.73-95.63 46.43-162.51 125.2-198.72 234.65-22.94 68.54-30.4 119.12-30.4 199.27 0 98.67 16.03 174.95 50.85 245.7 72.14 145.38 202.86 221.38 377.81 220.55 146.21-.83 276.38-68.54 369.24-192.08 104.2-138.47 300.15-153.11 421.2-30.96 58.32 58.32 81.81 116.36 81.53 199.82-.83 93.97-27.36 144.82-139.57 263.11-130.73 137.64-283.84 227.18-456.86 265.6-89.82 20.45-136.25 25.15-250.95 27.08-60.78.57-115.23.02-122.69-.81"/><path id="path12" d="M19144.72 3978.96c-452.99-46.98-806.2-337.46-909.84-747.33-35.38-140.68-40.63-297.66-15.48-437.78 61.91-339.12 285.22-606.93 614.95-738.21 271.4-107.51 608.31-105.85 876.68 4.97 323.64 133.77 541.98 402.96 600.02 739.04 24.32 139.57 17.69 296.55-17.69 437.78-30.12 119.12-89.82 243.21-166.11 344.37-38.14 50.85-139.02 150.63-192.08 189.87-157.54 116.91-343.54 186.28-555.25 207.56-53.61 5.53-181.3 4.98-235.2-.27m219.17-528.72c173.29-33.17 292.13-163.06 327.23-356.81 20.73-116.08 8.01-252.89-33.17-350.17-43.39-101.71-120.5-180.2-215.3-219.17-56.66-22.94-96.18-29.57-176.33-29.57-64.67 0-80.98 1.38-115.25 10.23-170.8 44.22-280.8 171.36-314.8 364.82-9.67 54.45-9.67 159.75 0 215.3 38.97 216.96 171.91 348.51 376.71 372.28 38.43 4.15 109.46 1.11 150.91-6.91"/><path id="path14" d="M21566.91 3977.02c-252.06-31.51-458.24-124.92-621.3-281.08-241.28-231.05-342.71-575.7-272.79-926.7 43.39-217.79 157.26-411.81 323.64-550.82 77.39-64.67 186.83-128.52 284.67-166.38 149.8-58.04 334.7-85.4 504.67-74.07 232.16 14.92 391.35 69.92 553.59 189.87 53.89 39.8 167.76 152.29 190.43 187.66 46.15 73.52 56.66 161.13 28.74 241-39.8 113.32-155.05 189.6-274.44 181.03-78.77-5.25-118.29-24.87-194.29-97.29-115.25-109.45-191.81-152.29-302.91-169.14-89.55-13.82-196.51-1.38-270.58 31.51-119.95 53.07-203.14 170.53-231.05 325.57-9.4 51.68-10.5 168.59-2.21 219.17 29.29 178.82 137.36 305.95 294.34 347.13 185.17 48.64 374.22-16.31 489.74-168.31 35.1-45.6 65.22-71.86 108.06-92.59 81.81-40.63 166.93-40.63 248.46-.55 96.18 47.81 153.11 139.02 154.22 246.25.55 73.52-20.45 128.79-70.75 190.7-148.69 182.13-305.4 288.26-500.8 338.84-90.38 23.49-154.49 30.95-277.76 32.89-79.04 1.12-125.47-.27-161.68-4.69"/><path id="path16" d="M23568.18 3980.61c-141.78-13.27-237.69-37.31-330.27-81.53-164.17-78.49-261.73-198.72-303.19-375.88-11.61-48.37-16.31-187.38-8.85-244.87 29.3-220.55 163.06-378.09 398.82-471.5 56.38-22.11 130.18-43.94 254.54-74.07 266.15-64.12 300.15-76.56 320.88-117.46 11.88-22.94 11.88-65.23.55-87.61-24.87-48.37-78.49-66.33-209.5-70.48-182.96-5.8-297.11 30.12-458.79 145.1-60.53 43.39-88.16 55.83-140.4 62.46-108.34 14.65-217.79-55.28-255.93-163.89-13.27-38.14-13.27-112.49.55-152.29 9.67-27.36 33.72-68.54 52.79-89.82 31.78-35.93 137.36-112.49 207.28-150.63 200.65-109.45 479.24-154.22 766.12-123.54 313.14 33.72 511.85 169.7 583.71 397.99 22.66 72.14 33.99 149.24 33.99 231.05 0 158.92-49.47 281.91-154.22 383.06-111.11 107.23-255.38 172.18-502.46 227.74-223.04 49.47-270.57 63.29-312.03 89.82-35.93 23.49-46.98 44.22-47.26 87.34 0 26.53 1.66 33.72 12.44 49.47 21.56 33.17 59.7 50.02 131.56 58.87 145.38 17.69 299.32-32.34 433.92-140.68 56.66-45.6 102.26-63.29 163.89-63.29 79.32 0 146.48 35.1 193.19 100.05 50.85 71.31 58.04 158.64 19.9 238.51-19.07 40.35-48.64 74.9-106.68 124.09-143.44 121.88-311.21 188.77-526.5 210.32-42.27 4.44-180.74 5.82-218.05 1.67"/><path id="path18" d="M16761.23 3952.7c-108.89-17.41-193.46-80.15-240.45-178.82-30.12-63.29-28.74-18.52-27.36-818.64l1.38-722.73 13.27-37.59c33.17-95.07 110.83-168.59 210.32-200.1 42.01-12.71 119.12-14.1 163.89-2.21 85.95 22.66 163.34 86.23 201.48 164.72 30.4 63.29 30.12 55.83 33.17 354.32 2.76 250.68 3.59 273.62 12.44 322.81 11.88 63.29 19.9 94.8 35.1 136.81 61.91 172.18 184.07 286.61 343.54 320.05 44.22 9.4 83.19 7.46 145.38-5.8 76.28-16.03 156.15-16.86 200.93-2.21 47.26 16.03 88.99 42.56 128.52 82.36 60.25 61.08 88.16 129.35 88.16 215.3-.55 56.38-8.57 90.65-32.89 139.57-33.99 68.27-76.28 108.34-152.84 146.48-76.28 37.59-102.81 43.39-205.9 43.39-98.67 0-146.21-6.63-222.21-30.96-111.66-35.93-223.59-101.71-309.82-182.41-16.03-14.92-30.12-27.36-31.78-27.36-1.38 0-2.76 6.08-2.76 13.82 0 39.8-35.1 119.12-71.86 162.51-40.35 47.26-99.5 84.57-159.47 100.05-34.01 8.02-89.01 11.62-120.24 6.64"/></g></svg>