<svg xmlns="http://www.w3.org/2000/svg" xml:space="preserve" id="Layer_1" x="0" y="0" class="project__logo" version="1.1" viewBox="0 0 513 338.6"><style>.st0{fill:#32807c} .st1{fill: var(--logo-bw)}</style><path d="M56.5 0c21.8 0 35.1 9.5 42.1 19.4l-18.3 17c-5.1-7.3-12.8-11.5-22.5-11.5-17 0-28.9 12.4-28.9 30.9s11.9 31.1 28.9 31.1c9.7 0 17.4-4.4 22.5-11.5l18.3 17c-7.1 9.9-20.3 19.4-42.1 19.4-32.9.1-56.5-23.1-56.5-56C0 23.2 23.6 0 56.5 0M117 2.6h28v14.6c7.5-9.5 20.7-17 34-17v27.4c-2-.4-4.6-.7-7.7-.7-9.3 0-21.6 5.1-26.3 11.9v70.4h-28zm72.6 53.2c0-30.2 21.2-55.8 56.3-55.8 35.3 0 56.5 25.6 56.5 55.8 0 30.4-21.2 56-56.5 56-35.1.1-56.3-25.5-56.3-56m83.6 0c0-16.5-9.9-30.9-27.4-30.9-17.4 0-27.1 14.3-27.1 30.9 0 16.8 9.7 31.1 27.1 31.1 17.5 0 27.4-14.3 27.4-31.1M326 75.7c7.7 7.3 23.6 14.6 36.8 14.6 12.1 0 17.9-4.2 17.9-10.8 0-7.5-9.3-10.2-21.4-12.6-18.3-3.5-41.9-7.9-41.9-33.3 0-17.9 15.7-33.5 43.7-33.5 18.1 0 32.4 6.2 42.8 14.6l-11 19.2c-6.4-6.8-18.5-12.4-31.5-12.4-10.2 0-16.8 3.8-16.8 9.9 0 6.6 8.4 9.1 20.3 11.5 18.3 3.5 42.8 8.4 42.8 34.9 0 19.6-16.5 34.2-46.1 34.2-18.5 0-36.4-6.2-47.7-16.5zm105.3 0c7.7 7.3 23.6 14.6 36.8 14.6 12.1 0 17.9-4.2 17.9-10.8 0-7.5-9.3-10.2-21.4-12.6-18.3-3.5-41.9-7.9-41.9-33.3 0-17.9 15.7-33.5 43.7-33.5 18.1 0 32.4 6.2 42.8 14.6l-11 19.2c-6.4-6.8-18.5-12.4-31.5-12.4-10.2 0-16.8 3.8-16.8 9.9 0 6.6 8.4 9.1 20.3 11.5 18.3 3.5 42.8 8.4 42.8 34.9 0 19.6-16.5 34.2-46.1 34.2-18.5 0-36.4-6.2-47.7-16.5z" class="st0"/><path d="M17.7 256.3v-55.6H0v-24.5h17.7v-29.1h28.2v29.1h21.6v24.5H45.9v48.1c0 6.6 3.5 11.7 9.7 11.7 4.2 0 8.2-1.5 9.7-3.1l6 21.2c-4.2 3.8-11.7 6.8-23.4 6.8-19.7.1-30.2-10.1-30.2-29.1m69.1-80.1h28v14.6c7.5-9.5 20.7-17 34-17v27.4c-2-.4-4.6-.7-7.7-.7-9.3 0-21.6 5.1-26.3 11.9v70.4h-28zm143.4 95.6c-7.3 8.6-19.9 13.7-33.8 13.7-17 0-37.1-11.5-37.1-35.3 0-24.9 20.1-34 37.1-34 14.1 0 26.7 4.4 33.8 13v-14.8c0-10.8-9.3-17.9-23.4-17.9-11.5 0-22.1 4.2-31.1 12.6l-10.6-18.8c13-11.5 29.8-16.8 46.5-16.8 24.3 0 46.6 9.7 46.6 40.4v68.8h-28zm0-27.8c-4.6-6.2-13.5-9.3-22.5-9.3-11 0-20.1 6-20.1 16.1 0 9.9 9 15.7 20.1 15.7 9 0 17.9-3.1 22.5-9.3zm53-100.2c0-9.3 7.7-16.8 16.8-16.8 9.3 0 16.8 7.5 16.8 16.8s-7.5 16.8-16.8 16.8c-9 0-16.8-7.5-16.8-16.8m2.9 32.4h28v106.6h-28zm55.8-40.6h28v147.2h-28z" class="st1"/><path d="M429.7 243.8v35.6c0 3.3 2.7 6 6 6h29.5c3.3 0 6-2.7 6-6v-35.6h35.6c3.3 0 6-2.7 6-6v-29.5c0-3.3-2.7-6-6-6h-35.6v-35.6c0-3.3-2.7-6-6-6h-29.5c-3.3 0-6 2.7-6 6v35.6h-35.6c-3.3 0-6 2.7-6 6v29.5c0 3.3 2.7 6 6 6z" style="opacity:.75;fill:#32807c"/><path d="M429.7 202.2h41.6v41.6h-41.6z" class="st0"/><path d="M.4 328.1c9.5-7.3 13.9-11.1 13.9-15.1 0-3-2.5-4.3-4.9-4.3-3 0-5.3 1.3-6.9 3.1l-2.2-2.5c2.1-2.6 5.5-4 9.1-4 4.6 0 8.9 2.6 8.9 7.6 0 4.9-4.7 9.4-11.7 14.7h11.8v3.3H.4zm32.2-22.7c7 0 9.9 6.8 9.9 13.1s-2.9 13.1-9.9 13.1-9.9-6.8-9.9-13.1 2.9-13.1 9.9-13.1m0 3.4c-4.5 0-6 4.7-6 9.7 0 4.9 1.6 9.7 6 9.7 4.5 0 6-4.8 6-9.7s-1.5-9.7-6-9.7m13.6 19.3c9.5-7.3 13.9-11.1 13.9-15.1 0-3-2.5-4.3-4.9-4.3-3 0-5.3 1.3-6.9 3.1l-2.2-2.5c2.1-2.6 5.5-4 9.1-4 4.6 0 8.9 2.6 8.9 7.6 0 4.9-4.7 9.4-11.7 14.7h11.8v3.3h-18zm33.7-3h-12V322l10.6-16.1h5.2v15.9h3.5v3.3h-3.5v6.1h-3.8zm-8.3-3.4h8.3v-12.5zm29.4-15.9h3.8v15.3c0 4.3 2.4 7.1 6.8 7.1s6.8-2.8 6.8-7.1v-15.3h3.8v15.4c0 6.3-3.5 10.4-10.6 10.4s-10.7-4.1-10.7-10.4zm48.8 5.2-8.2 20.1H140l-8.2-20.1v20.1H128v-25.3h5.4l7.4 18.2 7.4-18.2h5.4v25.3h-3.8zm13.2.7v19.5h-3.8v-25.3h3.9l13.8 19v-19h3.8v25.3H177zm33.2-5.9h10.7c5.2 0 8.1 3.6 8.1 7.8s-2.9 7.8-8.1 7.8H200v9.8h-3.8zm10.1 3.3H200v8.9h6.4c2.7 0 4.7-1.8 4.7-4.4s-2-4.5-4.8-4.5m10.8 12.9c0-5.3 3.6-9.6 9.3-9.6s9.3 4.3 9.3 9.6-3.5 9.6-9.3 9.6c-5.7 0-9.3-4.3-9.3-9.6m15 0c0-3.5-2-6.6-5.7-6.6-3.6 0-5.7 3.1-5.7 6.6s2.1 6.6 5.7 6.6c3.7 0 5.7-3.2 5.7-6.6m7.9-9.2h3.4v2.8c1.4-1.8 3.6-3.2 6-3.2v3.5c-.3-.1-.7-.1-1.2-.1-1.7 0-4 1.3-4.8 2.7v12.8H240zm13.5 14.3v-11.3h-3v-3h3v-5h3.4v5h3.7v3h-3.7v10.5c0 1.3.6 2.2 1.8 2.2.8 0 1.5-.3 1.9-.7l.9 2.6c-.7.7-1.8 1.2-3.6 1.2-2.9 0-4.4-1.6-4.4-4.5m11.8-11.3h-3v-3h3v-1.2c0-4 2.3-6.2 5.6-6.2 1.2 0 2.2.2 3 .7l-.8 2.5c-.5-.3-1-.4-1.6-.4-1.7 0-2.7 1.1-2.7 3.3v1.2h3.7v3h-3.7v15.4h-3.4v-15.3zm9.3 6.2c0-5.3 3.6-9.6 9.3-9.6s9.3 4.3 9.3 9.6-3.5 9.6-9.3 9.6c-5.7 0-9.3-4.3-9.3-9.6m15 0c0-3.5-2-6.6-5.7-6.6-3.6 0-5.7 3.1-5.7 6.6s2.1 6.6 5.7 6.6 5.7-3.2 5.7-6.6m7.9-16.2h3.4v25.3h-3.4zm8.3 1.8c0-1.2 1-2.2 2.2-2.2s2.2 1 2.2 2.2-1 2.2-2.2 2.2c-1.2-.1-2.2-1-2.2-2.2m.5 5.2h3.4v18.4h-3.4zm7.7 9.2c0-5.3 3.6-9.6 9.3-9.6s9.3 4.3 9.3 9.6-3.5 9.6-9.3 9.6c-5.7 0-9.3-4.3-9.3-9.6m15 0c0-3.5-2-6.6-5.7-6.6-3.6 0-5.7 3.1-5.7 6.6s2.1 6.6 5.7 6.6c3.7 0 5.7-3.2 5.7-6.6m16.7-3.5c0-7.8 5.8-13.1 13-13.1 5 0 8.1 2.4 10.1 5.4l-3.2 1.7c-1.3-2.1-3.8-3.7-6.8-3.7-5.1 0-9.1 4-9.1 9.7s4 9.7 9.1 9.7c3 0 5.5-1.6 6.8-3.7l3.2 1.7c-2 3-5.1 5.4-10.1 5.4-7.2 0-13-5.3-13-13.1m39.2.8c0-3-1.6-4-3.9-4-2.1 0-4.1 1.3-5.1 2.7v13.1h-3.4v-25.3h3.4v9.6c1.2-1.5 3.7-3 6.5-3 3.9 0 5.9 2 5.9 5.8v13h-3.4zm20.3 9.8c-1.4 1.6-3.5 2.5-6 2.5-3 0-6.4-2.1-6.4-6.1 0-4.2 3.3-6 6.4-6 2.5 0 4.6.8 6 2.4v-3c0-2.3-1.9-3.6-4.5-3.6-2.1 0-3.9.8-5.5 2.4l-1.5-2.4q3.15-3 7.5-3c4 0 7.4 1.7 7.4 6.4v12.4h-3.4zm0-5.1c-1-1.4-2.8-2.1-4.7-2.1-2.5 0-4.2 1.5-4.2 3.6s1.7 3.6 4.2 3.6c1.9 0 3.7-.7 4.7-2.1zm8.9-18.2h3.4v25.3h-3.4zm8.8 0h3.4v25.3h-3.4zm16.9 6.5c5.5 0 8.9 4.3 8.9 9.9v.8h-14.5c.3 3.1 2.5 5.7 6.2 5.7 1.9 0 4.1-.8 5.4-2.2l1.6 2.2c-1.8 1.8-4.4 2.7-7.4 2.7-5.5 0-9.5-3.9-9.5-9.6.1-5.2 4-9.5 9.3-9.5m-5.6 8.3h11.2c-.1-2.4-1.7-5.5-5.6-5.5-3.7.1-5.4 3-5.6 5.5m31.2-1.2c0-3-1.6-4-3.9-4-2.1 0-4.1 1.3-5.1 2.7v13.1H453v-18.4h3.4v2.6c1.2-1.5 3.6-3 6.5-3 3.9 0 5.9 2.1 5.9 5.9v12.9h-3.4zm10.4 14c1.5 1.7 3.4 2.4 5.9 2.4 2.8 0 5.7-1.4 5.7-5.2v-2.4c-1.4 1.8-3.6 3.2-6 3.2-4.8 0-8.2-3.5-8.2-9.5 0-5.9 3.4-9.5 8.2-9.5 2.4 0 4.6 1.1 6 3.1v-2.7h3.4v17.6c0 6.3-4.6 8.2-9.1 8.2-3.1 0-5.3-.6-7.5-2.7zm11.6-15.3c-.9-1.5-3-2.7-5.1-2.7-3.4 0-5.5 2.7-5.5 6.4 0 3.8 2.1 6.5 5.5 6.5 2.1 0 4.1-1.3 5.1-2.7zm16.9-5.8c5.5 0 8.9 4.3 8.9 9.9v.8h-14.5c.3 3.1 2.5 5.7 6.2 5.7 1.9 0 4.1-.8 5.4-2.2l1.6 2.2c-1.8 1.8-4.4 2.7-7.4 2.7-5.5 0-9.5-3.9-9.5-9.6.1-5.2 3.9-9.5 9.3-9.5m-5.6 8.3h11.2c-.1-2.4-1.7-5.5-5.6-5.5-3.7.1-5.4 3-5.6 5.5" class="st1"/></svg>