<svg xmlns="http://www.w3.org/2000/svg" xml:space="preserve" viewBox="0 0 223.74 55.56"><path style="fill:var(--logo-bw)" d="M212.56 43.5h-.47 3.7c.18 0 .36 0 .53.01.17 0 .33 0 .49.01.16 0 .3 0 .44.01.1 0 .2 0 .29.01.09 0 .18 0 .25.01.08 0 .14 0 .2.01.06 0 .11 0 .14.01.05 0 .07.01.08.01h.12c.11-.08.23-.15.34-.23l.33-.24c.11-.09.23-.17.33-.26.11-.09.21-.17.31-.26.06-.06.13-.11.19-.16s.11-.1.16-.15c.04-.04.08-.07.11-.1s.06-.06.09-.08c.04-.04.07-.06.08-.07h.01l.03-.01c.09-.09.19-.18.28-.27.27-.27.51-.57.74-.87.23-.31.45-.62.66-.95.2-.33.39-.67.56-1.01.17-.35.32-.7.46-1.06.13-.36.25-.73.35-1.1q.15-.555.24-1.11c.06-.37.1-.74.13-1.12.02-.37.03-.75.02-1.12s-.04-.75-.09-1.12-.12-.74-.2-1.11c-.07-.32-.16-.64-.26-.96-.1-.31-.22-.62-.34-.93q-.195-.45-.42-.9c-.08-.16-.17-.32-.26-.47-.1-.18-.21-.35-.32-.53-.13-.2-.27-.4-.41-.59-.09-.12-.18-.23-.27-.35l-.3-.36-.3-.36c-.1-.12-.2-.25-.3-.37-.1-.13-.2-.26-.3-.4-.11-.15-.22-.29-.32-.45-.09-.13-.18-.27-.27-.4-.23-.36-.47-.71-.69-1.08a21 21 0 0 1-1.16-2.23 24.963 24.963 0 0 1-.76-1.92c-.09-.27-.18-.55-.27-.83l-.21-.73c-.11-.41-.21-.82-.29-1.23-.09-.43-.17-.86-.23-1.3-.07-.45-.12-.91-.16-1.37-.04-.47-.07-.95-.08-1.43-.01-.5-.01-1 .02-1.5a21.433 21.433 0 0 1 .31-2.85c.07-.38.14-.76.23-1.13.08-.35.17-.7.26-1.05l.12-.4c.04-.13.08-.25.12-.38.04-.12.08-.24.11-.35.04-.11.08-.23.12-.34.05-.13.1-.26.13-.39q.06-.24.06-.48c0-.12-.01-.23-.04-.35-.01-.06-.03-.12-.05-.18-.02-.07-.04-.13-.07-.19-.03-.08-.07-.16-.12-.23-.05-.09-.12-.17-.18-.25-.08-.09-.17-.18-.27-.25-.07-.05-.14-.09-.22-.13l.01-.03-4.06-1.48a.615.615 0 0 0-.79.37l-9.02 24.78c-.12.32.05.67.37.79l4.06 1.48.01-.03c.01 0 .02.01.04.01.08.02.17.02.25.02.15 0 .3-.01.45-.05.13-.03.25-.07.37-.13.1-.05.19-.1.28-.16.07-.05.15-.11.21-.17.05-.05.1-.1.15-.16.08-.09.14-.2.2-.3.05-.09.09-.19.14-.28.04-.08.09-.17.14-.25.05-.09.11-.18.17-.26.06-.09.13-.18.2-.27.15-.18.3-.36.48-.52.17-.16.35-.3.54-.43s.38-.24.58-.35a4.8 4.8 0 0 1 2.6-.49c.22.02.44.06.65.11.1.02.21.05.31.08s.2.06.3.1.19.08.29.12c.11.05.22.11.33.17.13.07.26.15.38.24q.225.15.42.33c.1.09.2.18.29.28.1.11.2.22.29.33l.24.33c.11.18.23.35.33.54.11.21.21.43.29.65.05.13.1.26.13.4q.06.18.09.36c.03.11.05.23.07.34l.06.44c.01.12.02.24.02.37v.31a6.822 6.822 0 0 1-.11.94c-.04.21-.1.43-.16.63-.07.21-.15.42-.24.62-.09.21-.19.41-.31.6q-.18.3-.39.57a6 6 0 0 1-.48.55q-.27.27-.57.51-.315.24-.66.45c-.21.12-.44.23-.66.33-.2.08-.41.16-.62.22-.1.03-.2.05-.29.08-.12.03-.24.05-.36.07-.15.03-.3.05-.44.06-.18.02-.35.02-.53.02h-9.970000000000002l-.26.02-.32.07-.31.12-.35.17-.29.17c-.03.02-.07.04-.1.06-.13.08-.27.18-.41.28s-.27.21-.41.32c-.13.11-.27.23-.4.35-.14.14-.29.28-.42.42s-.26.28-.39.43c-.14.16-.27.33-.4.49-.12.16-.24.32-.34.47-.12.17-.22.34-.32.5-.09.16-.17.31-.25.45-.08.15-.14.3-.2.43q-.075.195-.12.36c-.02.08-.04.16-.05.23s-.01.12-.01.17c.02.23.04.47.08.7.04.24.1.49.18.72.07.22.16.44.26.66.1.2.2.39.32.58.11.17.24.34.37.5h14.100000000000001-13.519999999999998M15.24 44.16q-4.32 0-7.77-1.95t-5.46-5.37T0 29.16t1.98-7.65a14.7 14.7 0 0 1 5.37-5.37q3.39-1.98 7.53-1.98 4.02 0 7.11 1.86t4.86 5.1 1.77 7.38q0 .72-.09 1.47c-.09.75-.15 1.05-.27 1.65H4.62v-5.4h20.22l-2.46 2.16q-.12-2.64-1.02-4.44t-2.55-2.76-4.05-.96q-2.52 0-4.38 1.08T7.5 24.33t-1.02 4.65c0 2.7.36 3.38 1.08 4.74a7.6 7.6 0 0 0 3.06 3.15q1.98 1.11 4.56 1.11 2.22 0 4.11-.78a8.6 8.6 0 0 0 3.21-2.28l4.2 4.26q-2.1 2.46-5.1 3.72t-6.36 1.26M48.36 44.16q-4.26 0-7.71-1.98t-5.43-5.4-1.98-7.62q0-4.26 1.98-7.65t5.43-5.37 7.71-1.98q3.36 0 6.27 1.29t4.95 3.69l-4.32 4.38q-1.26-1.5-3.03-2.25t-3.87-.75q-2.46 0-4.35 1.11a7.8 7.8 0 0 0-2.94 3.03q-1.05 1.92-1.05 4.5 0 2.52 1.05 4.47a7.73 7.73 0 0 0 2.94 3.06q1.89 1.11 4.35 1.11 2.1 0 3.87-.75t3.03-2.25l4.32 4.38q-2.04 2.4-4.95 3.69t-6.27 1.29M65.52 43.56V.36h6.6v43.2zM84 9.48q-1.68 0-2.79-1.14T80.1 5.52t1.11-2.82T84 1.56q1.74 0 2.82 1.14t1.08 2.82-1.08 2.82T84 9.48m-3.3 34.08v-28.8h6.6v28.8zM95.88 55.56v-40.8h6.6v7.74l-1.14 7.02 1.14 6.96v19.08zm15.42-11.4q-3.3 0-5.88-1.41t-4.05-3.87-1.47-5.58v-8.28q0-3.12 1.5-5.58t4.08-3.87 5.82-1.41q3.9 0 7.05 2.01c3.15 2.01 3.76 3.14 4.98 5.4q1.83 3.39 1.83 7.65 0 4.2-1.83 7.59t-4.98 5.37c-3.15 1.98-4.45 1.98-7.05 1.98m-1.08-6.24q2.4 0 4.23-1.11t2.88-3.09 1.05-4.56-1.05-4.56-2.88-3.09-4.23-1.11-4.26 1.11-2.88 3.09-1.02 4.56 1.02 4.56 2.88 3.09 4.26 1.11M141.3 44.16q-2.4 0-4.62-.63a15.6 15.6 0 0 1-4.08-1.8q-1.86-1.17-3.24-2.85l4.2-4.2q1.5 1.74 3.45 2.61c1.95.87 2.77.87 4.41.87q2.22 0 3.36-.66t1.14-1.92q0-1.32-1.08-2.04t-2.79-1.23-3.6-1.05-3.6-1.47a7.76 7.76 0 0 1-2.79-2.55q-1.08-1.62-1.08-4.2 0-2.76 1.29-4.74t3.66-3.06 5.67-1.08q3.48 0 6.15 1.23t4.47 3.69l-4.2 4.2q-1.26-1.56-2.88-2.34t-3.72-.78q-1.98 0-3.06.6t-1.08 1.74q0 1.2 1.08 1.86t2.79 1.14 3.6 1.05 3.6 1.56a8.2 8.2 0 0 1 2.79 2.64q1.08 1.65 1.08 4.29 0 4.2-2.94 6.66t-7.98 2.46M172.26 44.16q-4.32 0-7.77-1.95t-5.46-5.37-2.01-7.68 1.98-7.65 5.37-5.37c3.39-1.98 4.77-1.98 7.53-1.98q4.02 0 7.11 1.86t4.86 5.1 1.77 7.38q0 .72-.09 1.47t-.27 1.65h-23.64v-5.4h20.22l-2.46 2.16q-.12-2.64-1.02-4.44t-2.55-2.76-4.05-.96q-2.52 0-4.38 1.08t-2.88 3.03-1.02 4.65c0 2.7.36 3.38 1.08 4.74a7.6 7.6 0 0 0 3.06 3.15q1.98 1.11 4.56 1.11 2.22 0 4.11-.78a8.6 8.6 0 0 0 3.21-2.28l4.2 4.26q-2.1 2.46-5.1 3.72c-3 1.26-4.12 1.26-6.36 1.26"/></svg>