<svg xmlns="http://www.w3.org/2000/svg" xml:space="preserve" x="0" y="0" version="1.1" viewBox="0 0 215.65 61.37"><style>.st2{fill:#2e4f8a}.st6{fill:#fa3e20}@media(prefers-color-scheme:dark){.st2{fill:#73a5ff}}</style><path d="M87.79 19.67c-.2-.55-.87-1.9-3.12-1.9-2.58 0-3.33 1.76-3.51 2.38h6.26c.29.01.44-.27.37-.48m3.56 3.13-.02.16h-9.56c-.39 0-.68.36-.48.82.28.63 1.03 1.7 3.1 1.75 2.39.07 3.1-.96 3.27-1.28h3.52c-.35 1.6-1.48 2.91-3.2 3.69-1.09.49-2.29.74-3.46.74-1.41 0-2.78-.35-3.85-1.05-1.71-1.11-2.79-2.86-3.05-4.93-.27-2.12.41-4.28 1.81-5.79 1.33-1.43 3.36-2.21 5.58-2.11 2.02.08 3.81.88 4.79 2.13 1.98 2.54 1.57 5.74 1.55 5.87m-37.06-3.13c-.2-.55-.87-1.9-3.12-1.9-2.58 0-3.33 1.76-3.51 2.38h6.26c.29.01.45-.27.37-.48m3.56 3.13-.02.16h-9.56c-.39 0-.68.36-.48.82.28.63 1.03 1.7 3.1 1.75 2.39.07 3.1-.96 3.27-1.28h3.52c-.35 1.6-1.49 2.91-3.21 3.69-1.09.49-2.29.74-3.46.74-1.41 0-2.78-.35-3.85-1.05-1.71-1.11-2.79-2.86-3.05-4.93-.27-2.12.41-4.28 1.81-5.79 1.33-1.43 3.36-2.21 5.58-2.11 2.02.08 3.81.88 4.79 2.13 1.99 2.54 1.58 5.74 1.56 5.87m14.81-7.07v12.64h3.55V14.96h-2.78a.77.77 0 0 0-.77.77m1.78-6.5c-1.19 0-2.15.97-2.15 2.15 0 1.19.96 2.15 2.15 2.15s2.15-.96 2.15-2.15-.97-2.15-2.15-2.15m-6.59 5.73h3.76l-5.24 13.41h-3.9l-5.24-13.41H61l3.13 8.8c.04.12.16.21.29.21.14 0 .25-.09.29-.21zM26.1 21.54c.01 4.47-3.61 8.11-8.09 8.11-4.47.01-8.11-3.61-8.11-8.09-.01-4.47 3.61-8.11 8.09-8.11 4.47 0 8.1 3.62 8.11 8.09" class="st2"/><path d="M31.95 25.92a14.67 14.67 0 0 1-9.6 9.6l.67-7.61c-.95.75-2.07 1.3-3.3 1.57l-.59 6.65c-.38.03-.76.05-1.14.05s-.76-.02-1.14-.05l-.59-6.65a8 8 0 0 1-3.3-1.57l.67 7.61c-4.57-1.42-8.17-5.03-9.6-9.6l7.61.67c-.76-.95-1.3-2.07-1.57-3.3l-6.64-.59c-.03-.38-.05-.76-.05-1.15s.02-.77.05-1.15l6.66-.59c.27-1.23.81-2.35 1.57-3.3l-7.61.69C5.9 11.25 11.45 6.94 18 6.94s12.1 4.31 13.95 10.26l-7.61-.67c.76.95 1.3 2.07 1.57 3.3l6.66.59c.03.38.05.76.05 1.15s-.02.77-.05 1.15l-6.66.59a8 8 0 0 1-1.57 3.3zM18 3.56c-9.94 0-18 8.06-18 18s8.06 18 18 18 18-8.06 18-18-8.06-18-18-18" style="fill:#33b88f"/><path d="M15.43 20.56h4.83c.22 0 .34-.13.32-.33s-.4-1.66-2.44-1.66c-2.37 0-2.71 1.99-2.71 1.99m.05 2.28c.13.53.7 1.57 2.45 1.61 2.16.06 2.53-1.09 2.53-1.09h2.26c-.24 1.13-1.05 2.04-2.24 2.58-1.59.72-3.7.73-5.17-.22-2.65-1.72-2.85-5.43-.88-7.57 1.98-2.14 5.87-1.83 7.31 0 1.43 1.83 1.12 4.17 1.12 4.17h-7.01c-.32 0-.45.17-.37.52" style="fill:#fff"/><path d="M134.93 3.5c-1.14-1.13-2.29-2.25-3.55-3.5h5c.82.83 1.72 1.74 2.63 2.63.91.9 1.83 1.78 2.7 2.63-1.88 1.87-3.69 3.66-5.6 5.56h-4.74l3.71-3.71c-1.77 0-3.28-.01-4.78 0-3.25.03-6.52-.09-9.76.13-6.11.42-11.46 5.04-13.03 10.99-1.57 5.98.82 12.41 5.88 15.91 2.58 1.78 5.42 2.69 8.56 2.69 25.03-.02 50.07-.01 75.1-.1 6-.02 10.48-2.98 13.22-8.23 2.66-5.1 2.43-10.26-.88-15.05-2.88-4.16-7.04-6.18-12.09-6.22-6.3-.05-12.6-.02-18.9-.02h-27.52V3.57h.73c15.16 0 30.33-.01 45.49 0 9.18.01 16.66 6.17 18.28 15.02 1.38 7.52-2.49 15.57-9.26 19.35-2.86 1.6-5.9 2.41-9.18 2.4-24.95-.03-49.91.01-74.86-.1-7.43-.03-13.01-3.62-16.4-10.14-3.25-6.25-2.95-12.59 1.02-18.48 3.44-5.11 8.43-7.73 14.6-7.92 4.24-.13 8.49-.03 12.73-.04h.79c.02-.04.07-.1.11-.16" class="st6"/><path d="M136.67 29.32c-4.43-.01-7.6-3.12-7.58-7.43.02-4.27 3.25-7.44 7.56-7.41 4.48.03 7.69 3.15 7.67 7.47-.02 4.3-3.21 7.38-7.65 7.37m.01-11.55c-2.36.01-4.02 1.72-4.02 4.14.01 2.43 1.68 4.15 4.02 4.15 2.37 0 4.05-1.7 4.06-4.11.01-2.46-1.66-4.19-4.06-4.18M159.9 29V14.87c.11-.03.21-.09.31-.09 2.03 0 4.06-.04 6.08.02 2.48.08 4.21 1.34 4.68 3.39.48 2.08.16 4.55-2.48 5.92l3.14 4.88h-4.19c-.82-1.43-1.65-2.88-2.49-4.36h-1.51v4.36c-1.21.01-2.34.01-3.54.01m3.56-7.83c1.14.01 2.05.04 3.1-.01.79-.12 1-.78 1-1.51 0-.69-.21-1.37-.95-1.46-1.03-.12-2.09-.03-3.15-.03zM145.86 14.82h3.44v.85c0 2.53-.02 5.05.01 7.58.02 2 1.48 3.14 3.41 2.71 1.13-.25 1.72-1.05 1.73-2.43.01-2.42 0-4.84 0-7.26 0-1.27.22-1.49 1.47-1.49h2v1.09c0 2.47.01 4.95 0 7.42-.01 2.33-.69 4.37-2.97 5.39-2.44 1.08-4.9 1-7.15-.56-1.36-.94-1.95-2.42-2-4.01-.09-3-.04-6.01-.04-9.01.02-.09.06-.17.1-.28" class="st2"/><path d="M122.29 29.2h-3.01V14.89h2.97v5.47h2.02v-4.23c0-1.04.22-1.26 1.27-1.28.56-.01 1.11 0 1.72 0V29.2h-2.97v-5.81h-2.01c.01 1.95.01 3.87.01 5.81M197.05 23.76v5.42h-3.03v-14.2c1.71 0 3.39-.12 5.04.04 1.45.14 2.41 1.16 2.76 2.56.51 1.99.35 3.87-1.45 5.34.66 2.05 1.32 4.11 2.01 6.26h-3.18c-.61-1.84-1.21-3.67-1.81-5.5-.11.02-.23.05-.34.08m.04-6.19v3.5c.65-.29 1.45-.4 1.57-.75.22-.63.2-1.47-.04-2.1-.13-.34-.93-.42-1.53-.65M185.87 29.2h-3.02c.92-4.79 1.83-9.53 2.75-14.3h3.67c.96 4.74 1.92 9.47 2.9 14.28h-3.12c-.19-.9-.38-1.84-.58-2.81h-2.04c-.19.93-.37 1.86-.56 2.83m2.06-5.79c-.15-.85-.29-1.63-.44-2.42h-.14l-.43 2.42zM178.35 20.14c-.04-.55-.03-1.06-.12-1.55-.09-.56-.34-1.02-1.03-1.01-.68.02-.97.48-.98 1.05-.03 2.26-.02 4.52.01 6.78.01.58.29 1.03.95 1.08.69.05.95-.44 1.05-.99.11-.62.11-1.26.16-1.91h3.21c-.23 1.24-.3 2.44-.68 3.54-.57 1.63-2.05 2.39-3.99 2.29-1.74-.09-3.02-1.04-3.53-2.64-.11-.35-.22-.73-.22-1.09-.02-2.47-.08-4.95.02-7.42.06-1.65.91-2.91 2.56-3.4 1.66-.5 3.26-.33 4.5 1.02 1.08 1.19 1.18 2.67 1.04 4.24-.97.01-1.92.01-2.95.01" class="st6"/><path d="M146.46 3.22c1.36-.01 2.39 1.01 2.4 2.35.01 1.38-1.03 2.44-2.41 2.45-1.31.01-2.44-1.14-2.42-2.47.01-1.31 1.07-2.32 2.43-2.33" class="st2"/><path style="fill:var(--logo-bw)" d="M29.06 57.92c-.56-.63-.84-1.52-.84-2.65v-6.19h1.84v.17c-.06.06-.09.13-.11.2s-.02.19-.02.36v5.47c0 .71.12 1.24.35 1.61.24.37.64.55 1.2.55.58 0 .99-.19 1.23-.56s.36-.92.36-1.64v-6.16h1.69v6.15q0 1.815-.87 2.73c-.58.61-1.39.92-2.42.92-1.04-.01-1.85-.33-2.41-.96M41.28 54.91c.34.18.58.4.74.66s.23.58.23.96c0 .42-.12.8-.37 1.17q-.375.54-1.02.87t-1.44.33c-.72 0-1.35-.1-1.88-.29s-1.03-.5-1.47-.93l.72-1.26.01-.02.02.02c.35.38.73.66 1.14.83s.9.26 1.49.26q1.23 0 1.23-.81c0-.17-.05-.31-.15-.43q-.15-.18-.48-.33c-.22-.1-.52-.21-.91-.32-.83-.22-1.47-.49-1.93-.81q-.69-.495-.69-1.35c0-.42.11-.78.33-1.11.22-.32.54-.58.96-.76q.63-.27 1.47-.27t1.53.27c.46.18.89.46 1.28.84l-.87 1.21-.01.02c-.01 0-.01 0-.01-.01-.21-.3-.48-.53-.81-.7a2.3 2.3 0 0 0-1.08-.25c-.31 0-.56.05-.77.16s-.31.25-.31.43c0 .17.06.31.17.42s.28.22.51.32.55.21.98.34c.59.17 1.05.36 1.39.54m-4.55 1.41.09.03-.03.05c-.04-.03-.06-.06-.06-.08m.28.09c0 .01-.01.02-.02.02-.02 0-.04-.01-.08-.03s-.07-.04-.09-.05l.03-.05.15.09zM41 53.64c0-.01.01-.02.02-.02.02 0 .04.01.08.04s.06.04.08.05l-.03.04-.15-.1zm.26.12c0 .01-.01 0-.03-.01l-.06-.03.04-.06c.03.05.05.08.05.1M48.97 51.95c.57.47.85 1.25.85 2.33v4.37h-1.64V58c-.28.26-.61.46-.99.61s-.8.22-1.25.22c-.75 0-1.31-.18-1.7-.55s-.59-.87-.59-1.5c0-.51.16-.95.48-1.31s.79-.63 1.4-.82 1.33-.28 2.18-.28h.53c-.05-.63-.2-1.07-.46-1.34s-.64-.4-1.16-.4c-.33 0-.67.09-1.03.26s-.68.41-.98.72l-.88-1.13c.45-.41.93-.72 1.45-.93s1.03-.32 1.53-.32c.93.01 1.69.25 2.26.72m-1.28 5.09c.3-.32.47-.83.53-1.52h-.35c-.88 0-1.52.1-1.93.29s-.61.49-.61.9c0 .28.1.49.3.62s.48.2.84.2c.53-.01.93-.17 1.22-.49M53.76 58.64c-.33-.16-.61-.39-.85-.68l-.23.69h-1.2V48.28h1.85v.17c-.06.06-.09.13-.11.2s-.02.19-.02.36v3.08c.22-.25.48-.44.77-.57s.59-.2.89-.2c.55 0 1.06.14 1.52.41s.83.68 1.1 1.22.41 1.2.41 1.97c0 .84-.15 1.56-.44 2.16s-.68 1.05-1.15 1.35q-.705.45-1.5.45c-.36 0-.71-.08-1.04-.24m1.56-1.42c.24-.16.44-.41.59-.75q.24-.525.24-1.32c0-.73-.14-1.32-.41-1.76-.27-.45-.67-.67-1.21-.67-.51 0-.86.2-1.06.61s-.29.96-.29 1.65c0 .86.12 1.49.36 1.88s.59.59 1.04.59c.26 0 .51-.08.74-.23M59.76 58.65v-1.38h1.73v-4.41h-1.64v-1.38h3.36v5.79h1.57v1.38zm1.94-8.56a1 1 0 0 1-.39-.37.9.9 0 0 1-.14-.5c0-.3.1-.54.3-.73s.46-.29.77-.29c.19 0 .36.05.53.14s.3.22.4.38q.15.24.15.51c0 .27-.05.35-.15.5-.1.16-.23.28-.4.37s-.34.14-.53.14q-.3-.015-.54-.15M67.11 58.65v-1.34h1.97v-7.7h-1.87v-1.34h3.61v9.04h1.95v1.34zM75.13 58.65v-1.38h1.73v-4.41h-1.64v-1.38h3.36v5.79h1.57v1.38zm1.94-8.56a1 1 0 0 1-.39-.37.9.9 0 0 1-.14-.5c0-.3.1-.54.3-.73s.46-.29.77-.29c.19 0 .36.05.53.14s.3.22.4.38q.15.24.15.51c0 .27-.05.35-.15.5-.1.16-.23.28-.4.37s-.34.14-.53.14q-.285-.015-.54-.15M88.45 58c-.38.28-.76.49-1.17.64-.4.15-.84.22-1.31.22q-1.125 0-1.71-.66c-.585-.66-.59-1.2-.59-2.27 0-.28.02-.58.05-.91l.13-2.15H82.3l.03-1.4h1.61l.1-1.68 1.89-.32.03.17c-.01.02-.04.05-.08.11s-.07.13-.1.2c-.03.08-.04.17-.05.27l-.11 1.24h2.21l-.03 1.4h-2.21l-.17 2.04c-.03.35-.04.63-.04.84 0 .64.08 1.08.23 1.33.16.25.4.38.73.38.31 0 .6-.06.86-.18.27-.12.56-.32.88-.6zM96.12 51.47c-.02.41-.08.83-.2 1.25s-.28.93-.5 1.51l-1.79 4.92c-.29.8-.64 1.36-1.06 1.7s-.92.51-1.52.51c-.34 0-.64-.06-.9-.17q-.405-.165-.87-.54l.56-1.23.01-.02c.01 0 .01.01.02.02 0 .01.06.05.15.13.21.16.38.28.52.36s.3.12.46.12c.25 0 .49-.13.71-.38s.42-.6.61-1.05l-2.72-7.15h1.68l1.8 5.04.93-2.57c.15-.47.26-.87.34-1.22s.12-.7.12-1.04c0-.1 0-.17-.01-.21h1.66zm-6.33 7.88c0-.01.03 0 .09.02l-.02.05c-.05-.04-.07-.06-.07-.07m.29.05c0 .02-.01.02-.03.02s-.07-.02-.17-.05l.03-.07.16.08zM105.37 58.65v-9.58h6.24v1.48h-4.56v2.36h3.78v1.51h-3.78v2.75h4.53v1.48zM119.24 51.47c-.03.42-.1.84-.24 1.26s-.33.95-.58 1.6l-1.7 4.32h-1.41l-2.72-7.18h1.71l1.79 5.26 1.03-2.6c.2-.58.35-1.06.45-1.46s.15-.8.15-1.19h1.52zM125.82 51.95c.57.47.85 1.25.85 2.33v4.37h-1.64V58c-.28.26-.61.46-.99.61s-.8.22-1.25.22c-.75 0-1.31-.18-1.7-.55s-.59-.87-.59-1.5c0-.51.16-.95.48-1.31s.79-.63 1.4-.82 1.33-.28 2.18-.28h.53c-.05-.63-.2-1.07-.46-1.34s-.64-.4-1.16-.4c-.33 0-.67.09-1.03.26s-.68.41-.98.72l-.88-1.13c.45-.41.93-.72 1.45-.93s1.03-.32 1.53-.32c.94.01 1.69.25 2.26.72m-1.27 5.09c.3-.32.47-.83.53-1.52h-.35c-.88 0-1.52.1-1.93.29s-.61.49-.61.9c0 .28.1.49.3.62s.48.2.84.2c.52-.01.93-.17 1.22-.49M128.6 58.65v-1.34h1.97v-7.7h-1.87v-1.34h3.61v9.04h1.95v1.34zM136.65 58.24c-.41-.48-.61-1.24-.61-2.28v-4.49h1.7v4.49c0 .54.09.93.27 1.19q.27.39.75.39c.29 0 .55-.08.78-.23.24-.15.42-.36.56-.63s.2-.58.2-.92v-4.3h1.73v6c0 .31.01.54.03.7s.06.32.13.47h-1.68a.9.9 0 0 1-.12-.37c-.02-.12-.03-.28-.03-.46-.2.35-.49.62-.86.83s-.73.31-1.08.31c-.77.02-1.37-.22-1.77-.7M148.88 51.95c.57.47.85 1.25.85 2.33v4.37h-1.64V58c-.28.26-.61.46-.99.61s-.8.22-1.25.22c-.75 0-1.31-.18-1.7-.55s-.59-.87-.59-1.5c0-.51.16-.95.48-1.31s.79-.63 1.4-.82 1.33-.28 2.18-.28h.53c-.05-.63-.2-1.07-.46-1.34s-.64-.4-1.16-.4c-.33 0-.67.09-1.03.26s-.68.41-.98.72l-.88-1.13c.45-.41.93-.72 1.45-.93s1.03-.32 1.53-.32c.94.01 1.69.25 2.26.72m-1.27 5.09c.3-.32.47-.83.53-1.52h-.35c-.88 0-1.52.1-1.93.29s-.61.49-.61.9c0 .28.1.49.3.62s.48.2.84.2c.52-.01.92-.17 1.22-.49M157.62 58c-.38.28-.76.49-1.17.64s-.84.22-1.31.22q-1.125 0-1.71-.66c-.585-.66-.59-1.2-.59-2.27 0-.28.01-.58.05-.91l.13-2.15h-1.55l.03-1.4h1.61l.1-1.68 1.89-.32.03.17c-.01.02-.04.05-.08.11s-.07.13-.1.2-.04.17-.05.27l-.11 1.24H157l-.03 1.4h-2.21l-.17 2.04c-.03.35-.04.63-.04.84 0 .64.08 1.08.23 1.33.16.25.4.38.73.38.31 0 .6-.06.86-.18.27-.12.56-.32.88-.6zM159.68 58.65v-1.38h1.73v-4.41h-1.64v-1.38h3.36v5.79h1.57v1.38zm1.93-8.56a1 1 0 0 1-.39-.37.9.9 0 0 1-.14-.5c0-.3.1-.54.3-.73s.46-.29.77-.29c.19 0 .36.05.53.14s.3.22.4.38q.15.24.15.51c0 .27-.05.35-.15.5-.1.16-.23.28-.4.37s-.34.14-.53.14q-.285-.015-.54-.15M168.12 58.41c-.52-.33-.93-.78-1.23-1.36q-.45-.87-.45-1.98c0-.7.15-1.33.46-1.9s.72-1.02 1.24-1.35 1.09-.5 1.72-.5 1.19.17 1.72.5c.52.33.94.78 1.24 1.35.31.57.46 1.21.46 1.9q0 1.11-.45 1.98c-.3.58-.71 1.03-1.23 1.36s-1.1.49-1.73.49-1.23-.17-1.75-.49m2.62-1.21c.25-.2.45-.49.58-.86s.2-.79.2-1.28-.07-.91-.2-1.27-.33-.63-.58-.82a1.44 1.44 0 0 0-.89-.29c-.33 0-.61.1-.86.29s-.44.46-.58.82-.21.78-.21 1.26c0 .49.07.92.2 1.29s.32.65.57.85.54.3.88.3.64-.08.89-.29M174.61 51.47h1.73v.74c.26-.28.56-.5.91-.66q.525-.24 1.14-.24c.68 0 1.22.24 1.63.72s.61 1.23.61 2.26v4.35h-1.73V54.3c0-.54-.1-.94-.3-1.19-.2-.26-.49-.38-.88-.38-.25 0-.47.05-.69.15s-.38.24-.51.44-.19.44-.19.72v4.61h-1.73v-7.18z"/></svg>