<svg xmlns="http://www.w3.org/2000/svg" style="fill: var(--logo-bw)" xml:space="preserve" class="project__logo" viewBox="0 0 132.33 59.65"><path d="M11.28 9.71c5.25-1.17 7.58 3.32 6.66 10.21-.6 6.59-5.25 10.12-10.5 8.46l.18-17.13c1.11-.68 2.33-1.18 3.66-1.54m-8.4 36.13c.82 1.8 1.23 2.74 3.09 2.74 1.47.04 1.93-.08 1.89-1.74.04-5.87-.6-11.33-.38-14.89 8.51 3.12 17.59-3.75 18.23-14.29C25.23 2.98 12.87 2.45 2.46 9.97c-3.42 9.8-3.26 24.34.42 35.87M46.47 30.7c.64-13.57 7.42-13.75 6.09-.17 5.82-15.55 16.19-13.89 13.76 2.9 1.28-1.13 2.48-2.36 3.56-3.7-1.38-25.2 9.1-34.03 13.79-27.8 3.23 5.93-.82 18.68-6.98 23.28-1.56 1.2-.87 3.65-.43 8.89 1.05 8.45 4.1 6.19 8.49-3.3.76-10.42 6.1-16.8 6.57-10.2-.18 10.84-1.61 20.97 2.14 16.91 1.48-2.08 3.11-4.82 4.81-7.87-.28-2.6-.35-5.5-.29-8.58-5.19-.82-5.19-3.19.14-3.8 1.77-19.17 5.2-19.54 5.29-1.22 8.28-2.43 8.9 1.71.18 4.06.31 4.14.64 8.1 1.13 10.53 2.3 7.93 3.54 5.47 6.73-1.97.76-11.16 7.63-18.11 12.58-15.63 4.75 3.62-.06 16.72-6.22 17.59.83 3.41 2.34 4.57 4.72 2.91 4.31-3.66 6.91-8.84 8.29-15.11.53-1.78 1.76-1.57 1.45.16-4.45 22.7-18.14 25.33-20.53 14.13-3.91 11.86-10.14 10.91-12.89.67-2.84 5.63-5.54 9.87-8.37 9.52-4.16-.42-5.38-3.56-5.63-7-2.64 5.5-4.57 8.51-7.9 8.08-4.65-.59-6.04-5.79-6.79-11.9-5.01 4.24-6.62 10.01-10.14 12.68-2.8 1.88-4.82-.52-3.39-3.01 2.29-3.7 4.81-6.18 5.45-12.47.28-5.63-.59-7.44-2.52-5.69-2.73 2.36-7.02 10.4-7.26 15.76-.04 7.1-.06 14.01.47 17.93 0 1.87-.19 1.99-1.63 2.29-1.13.25-1.92-.23-2.48-1.2-2.61-6.04-3.25-14.67-2.49-23.75-1.31 1.55-3.06 2.42-5.04 2.87-1.45 7.87-4.9 10.89-9.98 9.97-10.64-2.08-9.09-19.83-2.46-23.95 5.07-3.24 7.71-3.7 11.79-.18 1.36 1.28 1.44 4.71 1.32 11.23 1.88-.66 3.43-1.94 4.67-3.86m-9.2-5.16c-.62 3.7.01 6.54 1.52 8.77.99-2.93.96-5.89.16-8.85-.57-1.41-1.44-1.26-1.68.08m.35 11.08c-3.2-2.94-3.92-6.91-3.08-11.53-3.94 2.16-6.09 12.98-2.09 17.26 1.81 1.66 3.97 1.33 5.02-1.82.67-2.52 1.3-3.19.15-3.91M81.01 1.96c-3 3.79-4.98 13.24-4.99 20.01 3.74-1.88 8.05-17.86 4.99-20.01m36.31 24.76c3.08-.93 5.48-9.67 4.18-11.32-2.08 1.26-4.78 8.5-4.18 11.32M30.7 9.4c-.29-.43-.66-.36-1-.07l-1.64 1.31c-.34.34-.29.67.03.98l5.74 5.97c.45.52 1.43.03.95-.75z"/><path d="M42.54 9.26c.15-.55.01-.88-.55-.93l-2.01-.22c-.55-.03-.73.3-.72.75l-.17 8.22c-.08.96.9 1.27 1.21.18zM48.95 13.69c.31-.3.62-.36.93-.04l1.26 1.63c.32.42.27.73-.17 1.04l-7.26 4.36c-.67.38-1.29-.4-.68-.97zM93.04 52.66c-.22-.18-.54-.27-.99-.27-.36 0-.68.1-.93.3-.26.2-.46.45-.62.75s-.27.63-.34.98-.1.68-.1.98c0 .21.02.41.07.6a1.17 1.17 0 0 0 .65.82c.17.08.37.12.63.12.22 0 .41-.04.58-.11s.32-.17.45-.29q.195-.18.33-.42c.09-.16.16-.33.21-.5h1.95c-.29.89-.74 1.57-1.35 2.06-.61.48-1.38.72-2.32.72-1 0-1.78-.24-2.33-.73s-.83-1.26-.83-2.3q0-.915.27-1.71c.18-.54.44-1.01.78-1.42.35-.41.76-.73 1.26-.96.49-.23 1.06-.35 1.7-.35.43 0 .84.05 1.22.15s.72.26 1.01.47.52.49.69.82c.17.34.26.74.27 1.21h-1.95c.02-.44-.09-.74-.31-.92M99.49 48.39l-2.09 9.82h-1.94l2.07-9.82zM100.41 52.14c.21-.3.47-.54.77-.72q.45-.27 1.02-.39.555-.12 1.17-.12c.32 0 .66.02 1 .07q.525.06.96.27c.435.21.54.32.72.56s.27.57.27.97q0 .51-.15 1.2l-.63 2.86c-.04.13-.06.29-.08.47-.01.19-.02.35-.02.49 0 .12.02.26.07.41h-1.95v-.7c-.27.3-.59.53-.98.67-.38.14-.79.21-1.2.21-.38 0-.72-.05-1.01-.15s-.53-.24-.72-.41-.34-.36-.43-.59c-.09-.22-.14-.46-.14-.71 0-.69.23-1.24.71-1.65.47-.41 1.14-.67 2-.77q.69-.075 1.2-.12c.34-.03.62-.07.84-.13.23-.06.39-.15.5-.26.11-.12.17-.29.17-.52a.74.74 0 0 0-.12-.44.8.8 0 0 0-.31-.26c-.12-.06-.26-.11-.4-.13-.15-.02-.28-.04-.41-.04-.35 0-.66.09-.93.26-.28.17-.45.43-.51.79H100c.07-.45.2-.82.41-1.12m2.92 2.93c-.28.03-.57.06-.85.08q-.27.03-.54.09c-.17.04-.33.1-.46.19-.13.08-.24.19-.32.34s-.12.32-.12.54c0 .27.11.47.32.6s.46.2.75.2c.3 0 .56-.05.76-.14.21-.1.38-.22.53-.37.14-.15.25-.32.34-.52.08-.19.15-.38.2-.58l.19-.69c-.25.13-.52.22-.8.26M111.64 52.47c-.17-.17-.45-.26-.83-.26-.35 0-.63.05-.86.16a.56.56 0 0 0-.34.54c0 .16.07.29.2.4s.36.22.7.31l.98.32c.27.08.51.18.73.29s.42.25.59.41.3.35.4.57c.09.22.14.48.14.77 0 .44-.09.81-.29 1.12s-.45.56-.78.75-.68.33-1.08.41-.81.12-1.23.12c-.35 0-.7-.04-1.06-.11s-.68-.19-.97-.36-.52-.39-.71-.67q-.27-.42-.27-1.05v-.29h1.8v.23c0 .17.04.31.12.43.09.12.19.22.32.3s.28.14.45.18a2.2 2.2 0 0 0 .94.02c.15-.03.28-.08.4-.14s.22-.15.29-.26a.7.7 0 0 0 .11-.4c0-.25-.06-.42-.19-.52s-.3-.19-.51-.26l-1.5-.48c-.25-.08-.46-.17-.65-.26s-.35-.21-.48-.35-.23-.3-.3-.49-.1-.43-.1-.72c0-.42.1-.77.29-1.06.2-.28.45-.52.76-.69.31-.18.65-.31 1.03-.39.37-.08.72-.12 1.06-.12.39 0 .76.03 1.12.09s.67.18.94.35.48.4.64.69.23.67.22 1.13h-1.81c-.01-.3-.1-.54-.27-.71M118.77 52.47c-.17-.17-.45-.26-.83-.26-.35 0-.63.05-.86.16a.56.56 0 0 0-.34.54c0 .16.07.29.2.4s.36.22.7.31l.98.32c.27.08.51.18.73.29s.42.25.59.41.3.35.4.57c.09.22.14.48.14.77 0 .44-.09.81-.29 1.12s-.45.56-.78.75-.68.33-1.08.41-.81.12-1.23.12c-.35 0-.7-.04-1.06-.11s-.68-.19-.97-.36-.52-.39-.71-.67q-.27-.42-.27-1.05v-.29h1.8v.23c0 .17.04.31.12.43.09.12.19.22.32.3s.28.14.45.18a2.2 2.2 0 0 0 .94.02c.15-.03.28-.08.4-.14s.22-.15.29-.26a.7.7 0 0 0 .11-.4c0-.25-.06-.42-.19-.52s-.3-.19-.51-.26l-1.5-.48c-.25-.08-.46-.17-.65-.26s-.35-.21-.48-.35-.23-.3-.3-.49-.1-.43-.1-.72c0-.42.1-.77.29-1.06.2-.28.45-.52.76-.69.31-.18.65-.31 1.03-.39.37-.08.72-.12 1.06-.12.39 0 .76.03 1.12.09s.67.18.94.35.48.4.64.69.23.67.22 1.13h-1.81c-.01-.3-.1-.54-.27-.71M124.65 51.1l-1.51 7.11h-1.95l1.5-7.11zM122.9 50l.36-1.61h1.97l-.36 1.61zM129.96 52.66c-.22-.18-.54-.27-.99-.27-.36 0-.68.1-.93.3-.26.2-.46.45-.62.75s-.27.63-.34.98-.1.68-.1.98c0 .21.02.41.07.6a1.17 1.17 0 0 0 .65.82c.17.08.37.12.63.12.22 0 .41-.04.58-.11s.32-.17.45-.29q.195-.18.33-.42c.09-.16.16-.33.21-.5h1.95c-.29.89-.74 1.57-1.35 2.06-.61.48-1.38.72-2.32.72-1 0-1.78-.24-2.33-.73s-.83-1.26-.83-2.3q0-.915.27-1.71c.18-.54.44-1.01.78-1.42.35-.41.76-.73 1.26-.96.49-.23 1.06-.35 1.7-.35.43 0 .84.05 1.22.15s.72.26 1.01.47.52.49.69.82c.17.34.26.74.27 1.21h-1.95c.01-.44-.1-.74-.31-.92"/><circle cx="90.09" cy="13.75" r="2.57"/></svg>