<svg xmlns="http://www.w3.org/2000/svg" xml:space="preserve" id="Layer_1" x="0" y="0" class="project__logo" version="1.1" viewBox="0 0 281.2 39.3"><path d="M198.4 7.9c-.1-.4-.2-.8-.4-1.1s-.5-.6-.8-.9q-.45-.3-1.2-.6c-.75-.3-.9-.2-1.3-.2s-.8 0-1.2.1-.7.2-1 .4-.5.4-.6.7c-.2.3-.2.6-.2 1q0 .75.3 1.2c.2.3.5.5.8.7s.7.3 1.1.5.8.2 1.2.4l4.6 1.5q.9.3 1.8.9c.6.4 1 .9 1.4 1.4.4.6.7 1.2 1 1.9s.4 1.5.4 2.4c0 1.2-.2 2.3-.7 3.4-.5 1-1.1 1.9-1.9 2.6s-1.8 1.3-2.9 1.7-2.4.6-3.8.6q-1.5 0-2.7-.3c-.9-.2-1.6-.5-2.4-.9-.7-.4-1.3-.9-1.9-1.5-.5-.6-1-1.2-1.3-1.9H185v-5h6v1c0 .5.1 1 .2 1.4s.4.8.7 1.1.7.6 1.2.7c.5.2 1.1.3 1.7.3 1 0 1.8-.2 2.3-.7s.8-1.1.8-1.9c0-.4-.1-.8-.3-1.1s-.4-.5-.7-.7-.6-.4-1-.5-.7-.3-1.1-.4l-3.8-1.2q-1.05-.3-2.1-.9c-1.05-.6-1.3-.9-1.8-1.5q-.75-.9-1.2-2.1c-.3-.8-.5-1.7-.5-2.8 0-1.2.2-2.3.7-3.2.4-.9 1.1-1.7 1.9-2.4.8-.6 1.8-1.1 2.9-1.5 1.1-.3 2.3-.5 3.6-.5 1 0 2 .1 2.9.4.9.2 1.7.6 2.4 1s1.3.9 1.8 1.4.9 1.1 1.1 1.6h1.7v5h-6zm21 6.8c-.5-.6-1-1.1-1.6-1.4s-1.3-.4-2.1-.4c-.6 0-1.2 0-1.8.3s-1 .5-1.4.9-.7.9-.9 1.4c-.2.6-.3 1.2-.3 1.9 0 .6.1 1.2.3 1.7s.5 1 .9 1.4.8.7 1.4.9 1.1.4 1.7.4c.5 0 1-.2 1.4-.3.4-.2.8-.4 1.1-.7l.9-.9c.2-.3.4-.7.6-1l4.6 1.3c-.2.7-.5 1.4-1 2.1s-1.1 1.4-1.8 2-1.6 1.1-2.6 1.5-2.2.6-3.5.6-2.5-.2-3.7-.7c-1.1-.5-2.1-1.1-2.9-2s-1.4-1.8-1.9-2.9-.7-2.3-.7-3.6.2-2.5.7-3.6 1.1-2.1 1.9-2.9 1.8-1.5 2.9-1.9q1.65-.75 3.6-.6 1.35 0 2.7.3c.9.3 1.7.6 2.5 1.2h3.3v5zm6.6 2.6c0-1.3.2-2.4.7-3.5s1.1-2.1 1.9-2.9 1.8-1.5 2.9-2 2.4-.7 3.7-.7 2.6.2 3.7.7 2.1 1.1 2.9 2c.8.8 1.4 1.8 1.9 2.9s.7 2.3.7 3.5-.2 2.4-.7 3.5-1.1 2.1-1.9 2.9-1.8 1.5-2.9 2-2.4.7-3.8.7-2.6-.2-3.8-.7c-1.1-.5-2.1-1.1-2.9-2-.8-.8-1.4-1.8-1.9-2.9s-.5-2.2-.5-3.5m5 0q0 1.05.3 1.8c.2.5.5 1 .9 1.4s.8.7 1.3.9 1 .3 1.6.3 1.1-.1 1.6-.3.9-.5 1.3-.9.7-.9.9-1.4q.3-.9.3-1.8c0-.7-.1-1.3-.3-1.9s-.5-1-.9-1.4-.8-.7-1.3-.9-1.1-.3-1.6-.3c-.6 0-1.1.1-1.6.3s-1 .5-1.3.9c-.4.4-.7.9-.9 1.4-.2.6-.3 1.2-.3 1.9m26.6-8.5h8.2v12.7h2.1V26h-7.3v-1.5q-.9.75-2.1 1.2c-.8.3-1.7.4-2.7.4s-1.9-.2-2.7-.5-1.6-.8-2.2-1.4-1.1-1.4-1.5-2.3-.5-2-.5-3.2v-5.6h-2.3V8.8h7.6V19c0 1.2.3 2 .9 2.6s1.4.9 2.3.9q1.05 0 1.8-.6c.75-.6.9-1 1.2-1.7v-6.8h-2.8zm19.4 0h3.5v4.4H277v7.3c0 .4 0 .8.1 1q.15.45.3.6c.1.2.3.3.5.3s.4.1.6.1c.4 0 .8 0 1.1-.1s.6-.2 1-.3l.7 3.2c-.6.4-1.2.6-1.9.9-.7.2-1.5.3-2.5.3-.7 0-1.3-.1-1.9-.4-.6-.2-1.2-.6-1.6-1.1s-.8-1.1-1.1-1.8-.4-1.5-.4-2.5V13h-2.5V8.8h2.5V4.7l5.2-2.5z" style="fill:#80c342"/><path d="M71.2 5.4c-.4-.5-.7-.9-1.2-1.1-.4-.3-.9-.5-1.4-.6s-1-.2-1.5-.2c-.8 0-1.6.1-2.2.3s-1.2.5-1.6.8q-.6.45-.9 1.2c-.3.4-.4.9-.4 1.3 0 .7.1 1.3.4 1.8s.6.8 1 1.1.8.5 1.3.6c.5.2.9.3 1.4.5l3.4 1.1c1 .3 1.9.7 2.7 1.1s1.4.9 1.9 1.5.9 1.2 1.2 1.9.4 1.6.4 2.6-.2 2-.6 2.9-1 1.7-1.8 2.3q-1.2 1.05-2.7 1.5c-1.1.4-2.2.6-3.5.6s-2.4-.1-3.3-.4-1.7-.7-2.3-1.2-1.1-1.1-1.5-1.7-.7-1.3-.9-2h-1.3v-2.9H62c0 1.2.1 2.1.4 2.6s.6.9 1.1 1.3c.5.3 1 .6 1.7.8.6.2 1.4.3 2.1.3.8 0 1.4-.1 2-.3s1.1-.4 1.6-.8c.4-.3.8-.8 1-1.2.2-.5.3-1 .3-1.6 0-.7-.1-1.3-.4-1.7-.3-.5-.6-.9-1.1-1.2-.4-.3-.9-.6-1.5-.8l-1.5-.6-3.7-1c-.8-.2-1.5-.6-2.2-.9s-1.2-.8-1.7-1.4-.8-1.2-1.1-1.9-.4-1.6-.4-2.5q0-1.5.6-2.7c.4-.8.9-1.6 1.7-2.2s1.6-1.1 2.7-1.5 2.3-.5 3.6-.5c.9 0 1.7.1 2.5.3q1.2.3 2.1.9c.9.6 1.2.8 1.6 1.4q.75.75 1.2 1.8h1.3v2.9h-4.1c-.1-1.3-.2-2-.6-2.5m5.7 3.4h5.5v2.9h-.8l3 11 4.1-13.9h2.6l4 13.9 3.2-11h-1V8.8h5.5v2.9h-1.5l-4.7 14.7h-2.9L90 12.6l-4 13.7h-2.9l-4.7-14.7h-1.5zm31.6 9c0 .5 0 .9.1 1.3l.3 1.2c.4 1.1 1.1 1.9 2 2.5s1.9.8 3.1.8c.9 0 1.8-.1 2.6-.4s1.7-.6 2.7-1.2l1.3 2.1c-1.1.8-2.3 1.4-3.4 1.7q-1.65.6-3.6.6c-1.2 0-2.2-.2-3.2-.6s-1.9-1-2.6-1.7-1.3-1.7-1.7-2.9c-.4-1.1-.6-2.5-.6-4 0-1.2.2-2.4.5-3.5s.9-2.1 1.5-2.9c.7-.8 1.5-1.5 2.5-1.9 1-.5 2.2-.7 3.5-.7q1.95 0 3.3.6c.9.4 1.6.9 2.1 1.6.6.7 1 1.4 1.3 2.2s.5 1.7.6 2.6c.1.4.1.9.1 1.3v1.3zm4.9-6.9c-.7 0-1.4.1-1.9.3s-1 .5-1.4.9-.7.9-.9 1.4c-.2.6-.4 1.2-.5 1.9h9q0-.9-.3-1.8c-.3-.9-.4-1-.7-1.4s-.8-.7-1.3-.9c-.6-.3-1.2-.4-2-.4m24.2 1.5h-3.2v-1.1c-.4 0-.7.1-1.1.2s-.7.4-1.1.6c-.3.3-.6.6-.9 1.1-.2.4-.4 1-.5 1.6v8.3h2.9V26h-8.6v-2.9h2.4V11.6h-2.4V8.8h5.5v2.4c.2-.4.4-.7.7-1s.5-.6.8-.8.6-.4 1-.5.8-.2 1.2-.2h3.1v3.7zm2.3-3.6h6v2.9h-1.6l4.3 11.9 4.2-11.9h-1.1V8.8h5.5v2.9h-1.5L150 26.3h-3.1l-5.6-14.7h-1.4zm22.6 9c0 .5 0 .9.1 1.3l.3 1.2c.4 1.1 1.1 1.9 2 2.5s1.9.8 3.1.8c.9 0 1.8-.1 2.6-.4s1.7-.6 2.7-1.2l1.3 2.1c-1.1.8-2.3 1.4-3.4 1.7s-2.3.6-3.6.6c-1.2 0-2.2-.2-3.2-.6s-1.9-1-2.6-1.7c-.7-.8-1.3-1.7-1.7-2.9s-.6-2.5-.6-4c0-1.2.2-2.4.5-3.5s.9-2.1 1.5-2.9c.7-.8 1.5-1.5 2.5-1.9 1-.5 2.2-.7 3.5-.7q1.95 0 3.3.6c.9.4 1.6.9 2.1 1.6s1 1.4 1.3 2.2.5 1.7.6 2.6c.1.4.1.9.1 1.3v1.3zm4.8-6.9c-.7 0-1.4.1-1.9.3s-1 .5-1.4.9-.7.9-.9 1.4c-.2.6-.4 1.2-.5 1.9h9q0-.9-.3-1.8c-.3-.9-.4-1-.7-1.4s-.8-.7-1.3-.9c-.5-.3-1.2-.4-2-.4m-138.2 4v6.6h-6.5c-.4-.8-1-1.5-1.7-2.1v-4.5zm-14.7 7.6c.4 0 .8.1 1.2.2v4.5h-4.8c-.2-.8-.1-.4-.1-1 0-2 1.7-3.7 3.7-3.7M7.6.1h22.8c0 .2-2.4 9.3-2.4 9.3H15.7V17c-.9-.1-.5-.1-1.2-.1-4.6.1-8.2 3.2-9.1 7.7L0 19h7.7zm27.2.1-2.5 9.3h2.5v17.7H42V.2z" class="logo-bw"/><path d="M14.4 31.6c-2.9 0-5.3-2.4-5.3-5.3s2.4-5.3 5.3-5.3 5.3 2.4 5.3 5.3-2.4 5.3-5.3 5.3m7.1 0h-.9l-.3-.3c1.2-1.4 1.8-3.1 1.8-5 0-4.3-3.4-7.7-7.6-7.7s-7.6 3.5-7.6 7.7c0 4.3 3.4 7.7 7.6 7.7 1.9 0 3.6-.7 5-1.9l.3.3v.9l5.9 5.9 1.8-1.8z" class="logo-bw"/></svg>