<svg xmlns="http://www.w3.org/2000/svg" xml:space="preserve" viewBox="0 0 512 512" class="inline-icon"><path d="M214.93 59.42c-54.46 12.14-99.11 42.32-129.82 88.04-53.75 80.54-43.04 188.57 25.54 257.5 20.54 20.71 51.79 40.71 75.36 48.39 8.75 2.86 9.82 2.86 13.75.18 4.29-2.86 4.46-3.57 4.46-24.11v-21.07l-15.71.89c-18.39.89-32.68-2.32-41.25-9.64-3.04-2.5-8.93-11.07-13.04-18.93-6.79-13.21-11.79-19.29-25.71-31.61-4.64-4.11-4.82-4.29-1.61-6.61 7.68-5.71 23.21-.18 33.04 11.61 17.14 20.89 23.75 26.43 33.57 28.57 8.75 1.79 16.79 1.07 28.93-2.5 1.61-.54 3.75-4.29 4.82-8.57 1.07-4.11 3.93-10.36 6.25-13.75l4.29-6.25-14.46-2.86c-30.36-6.25-49.11-17.14-61.43-35.71-11.43-17.14-15.18-31.96-15.36-59.64 0-26.07 2.86-36.79 14.11-51.43 5-6.43 5.54-8.39 4.11-12.14-2.68-6.43-1.96-33.57.89-41.79 2.32-6.07 3.57-7.14 8.39-7.68 8.04-.89 23.04 4.29 38.21 12.86l13.04 7.5 11.43-2.68c16.25-3.75 65-3.57 79.64 0l11.07 2.86 10.36-6.25c13.75-8.21 31.25-14.64 40-14.64 6.96 0 6.96.18 9.82 9.29 3.04 10.54 3.57 29.64.89 38.75-1.43 5.36-1.07 6.96 2.86 12.14 19.46 25.71 21.61 68.39 5.18 103.39-11.07 23.04-34.46 39.11-65.89 45l-15 2.86 5.54 9.82 5.71 10 .54 39.82.71 39.82 4.46 2.86c4.11 2.68 5 2.68 13.57-.36 14.29-4.82 38.75-18.04 52.14-28.21 79.64-59.65 105.35-166.62 61.24-255.54-25.89-52.32-74.82-92.5-130.89-107.5-24.47-6.43-70.54-7.86-93.75-2.68"/></svg>