<svg xmlns="http://www.w3.org/2000/svg" class="inline-icon" xml:space="preserve" viewBox="0 0 512 512"><path d="M431.2 51H81.8C65.1 51 51 64.3 51 80.5v351c0 16.2 9.3 29.5 26.1 29.5h349.3c16.7 0 34.6-13.3 34.6-29.5v-351c-.2-16.4-13.1-29.5-29.8-29.5M167.9 402.3h-58.5V207.1h58.5zm-29.2-227c-20.2 0-36.6-16.4-36.6-36.6s16.4-36.6 36.6-36.6 36.6 16.5 36.6 36.6c0 20.2-16.4 36.6-36.6 36.6m263.8 227H344v-97.7c0-25.9-10.3-48.7-34.6-48.7-29.5 0-43.5 20-43.5 52.6v93.8h-58.5V207.1h55v28.2h.7c8.4-15.1 33.3-30.5 64-30.5 59 0 75.4 31.3 75.4 89.4z" style="fill-rule:evenodd;clip-rule:evenodd"/></svg>