<svg xmlns="http://www.w3.org/2000/svg" xml:space="preserve" viewBox="0 0 612 299.1"><path d="M372.1 108.2h-41.3V83.4c0-9.1-7.4-16.5-16.5-16.5h-16.5c-9.1 0-16.5 7.4-16.5 16.5v24.8H240c-9.1 0-16.5 7.4-16.5 16.5v90.9c0 9.1 7.4 16.5 16.5 16.5h132.3c9.1 0 16.5-7.4 16.5-16.5v-90.9c-.1-9.1-7.6-16.5-16.7-16.5m-90.9 41.3c6.9 0 12.4 5.5 12.4 12.4s-5.5 12.4-12.4 12.4-12.4-5.5-12.4-12.4c0-6.8 5.5-12.4 12.4-12.4m24.8 49.6h-49.6v-6.2c0-8.3 16.5-12.4 24.8-12.4s24.8 4.1 24.8 12.4zm8.3-74.4h-16.5V83.4h16.5zm41.3 62h-33.1v-12.4h33.1zm0-24.8h-33.1v-12.4h33.1z" style="fill:#fa3e20"/></svg>