<svg xmlns="http://www.w3.org/2000/svg" xml:space="preserve" id="Layer_1" x="0" y="0" version="1.1" viewBox="0 0 612 299.1"><style>.st1{fill:#fa3e20}</style><circle cx="334.1" cy="129.5" r="12" class="st1"/><circle cx="278" cy="129.5" r="12" class="st1"/><path d="M306 69.3c-44.3 0-80.1 35.9-80.1 80.2s35.9 80.2 80.1 80.2c44.4 0 80.3-35.9 80.3-80.2s-36-80.2-80.3-80.2m0 144.4c-35.5 0-64.2-28.7-64.2-64.2s28.7-64.2 64.2-64.2 64.2 28.7 64.2 64.2-28.7 64.2-64.2 64.2m0-32.1c-5.9 0-11.1-1.4-15.7-4.2-1 1.1-6.9 7.9-8.1 9.2 6.9 4.4 15 7 23.8 7 8.9 0 17-2.6 23.9-7.1-7.8-8.7-.1-.2-8.1-9.2-4.7 2.9-9.9 4.3-15.8 4.3" class="st1"/></svg>