<svg xmlns="http://www.w3.org/2000/svg" id="Layer_1" data-name="Layer 1" viewBox="0 0 612 299.1"><defs><style>.cls-1{fill:#2e4f8a}</style></defs><path d="m117.58 176.35 21.12 12.75c2.19 1.32 4.89-.64 4.31-3.13l-5.61-24.03c-.24-1.05.11-2.14.92-2.84l18.67-16.17c1.93-1.68.9-4.85-1.65-5.07l-24.58-2.08c-1.07-.09-2-.77-2.42-1.75l-9.61-22.67c-1-2.35-4.33-2.35-5.33 0l-9.61 22.67c-.42.99-1.35 1.66-2.42 1.75l-24.58 2.08c-2.55.22-3.58 3.39-1.65 5.07l18.67 16.17c.81.7 1.17 1.8.92 2.84l-5.61 24.03c-.58 2.49 2.12 4.46 4.31 3.13l21.12-12.75c.92-.55 2.07-.55 2.99 0ZM212.61 176.35l21.12 12.75c2.19 1.32 4.89-.64 4.31-3.13l-5.61-24.03c-.24-1.05.11-2.14.92-2.84l18.67-16.17c1.93-1.68.9-4.85-1.65-5.07l-24.58-2.08c-1.07-.09-2-.77-2.42-1.75l-9.61-22.67c-1-2.35-4.33-2.35-5.33 0l-9.61 22.67c-.42.99-1.35 1.66-2.42 1.75l-24.58 2.08c-2.55.22-3.58 3.39-1.65 5.07l18.67 16.17c.81.7 1.17 1.8.92 2.84l-5.61 24.03c-.58 2.49 2.12 4.46 4.31 3.13l21.12-12.75c.92-.55 2.07-.55 2.99 0ZM307.64 176.35l21.12 12.75c2.19 1.32 4.89-.64 4.31-3.13l-5.61-24.03c-.24-1.05.11-2.14.92-2.84l18.67-16.17c1.93-1.68.9-4.85-1.65-5.07l-24.58-2.08c-1.07-.09-2-.77-2.42-1.75l-9.61-22.67c-1-2.35-4.33-2.35-5.33 0l-9.61 22.67c-.42.99-1.35 1.66-2.42 1.75l-24.58 2.08c-2.55.22-3.58 3.39-1.65 5.07l18.67 16.17c.81.7 1.17 1.8.92 2.84l-5.61 24.03c-.58 2.49 2.12 4.46 4.31 3.13l21.12-12.75c.92-.55 2.07-.55 2.99 0ZM402.68 176.35l21.12 12.75c2.19 1.32 4.89-.64 4.31-3.13l-5.61-24.03c-.24-1.05.11-2.14.92-2.84l18.67-16.17c1.93-1.68.9-4.85-1.65-5.07l-24.58-2.08c-1.07-.09-2-.77-2.42-1.75l-9.61-22.67c-1-2.35-4.33-2.35-5.33 0l-9.61 22.67c-.42.99-1.35 1.66-2.42 1.75l-24.58 2.08c-2.55.22-3.58 3.39-1.65 5.07l18.67 16.17c.81.7 1.17 1.8.92 2.84l-5.61 24.03c-.58 2.49 2.12 4.46 4.31 3.13l21.12-12.75c.92-.55 2.07-.55 2.99 0ZM497.71 176.35l21.12 12.75c2.19 1.32 4.89-.64 4.31-3.13l-5.61-24.03c-.24-1.05.11-2.14.92-2.84l18.67-16.17c1.93-1.68.9-4.85-1.65-5.07l-24.58-2.08c-1.07-.09-2-.77-2.42-1.75l-9.61-22.67c-1-2.35-4.33-2.35-5.33 0l-9.61 22.67c-.42.99-1.35 1.66-2.42 1.75l-24.58 2.08c-2.55.22-3.58 3.39-1.65 5.07l18.67 16.17c.81.7 1.17 1.8.92 2.84l-5.61 24.03c-.58 2.49 2.12 4.46 4.31 3.13l21.12-12.75c.92-.55 2.07-.55 2.99 0Z" class="cls-1"/></svg>