<svg xmlns="http://www.w3.org/2000/svg" xml:space="preserve" id="Layer_1" x="0" y="0" version="1.1" viewBox="0 0 612 299.1"><style>.st1{fill:#fa3e20}</style><path d="M373.6 95.3c-8.3-2.6-17.5-3.8-26.3-3.8-14.7 0-30.4 3-41.3 11.3-10.9-8.3-26.7-11.3-41.3-11.3s-30.4 3-41.3 11.3V213c0 1.9 1.9 3.8 3.8 3.8.8 0 1.1-.4 1.9-.4 10.1-4.9 24.8-8.3 35.7-8.3 14.7 0 30.4 3 41.3 11.3 10.1-6.4 28.6-11.3 41.3-11.3 12.4 0 25.2 2.3 35.7 7.9.8.4 1.1.4 1.9.4 1.9 0 3.8-1.9 3.8-3.8V102.8c-4.6-3.3-9.5-5.6-15.2-7.5m0 101.5c-8.3-2.6-17.3-3.8-26.3-3.8-12.8 0-31.2 4.9-41.3 11.3v-86.4c10.1-6.4 28.6-11.3 41.3-11.3 9 0 18 1.1 26.3 3.8z" class="st1"/><path d="M347.3 136.7c6.6 0 13 .7 18.8 2v-11.4c-5.9-1.1-12.3-1.8-18.8-1.8-12.8 0-24.4 2.2-33.8 6.2v12.5c8.5-4.9 20.3-7.5 33.8-7.5M313.5 151.6v12.5c8.5-4.8 20.3-7.4 33.8-7.4 6.6 0 13 .7 18.8 2v-11.4c-5.9-1.1-12.3-1.8-18.8-1.8-12.7-.1-24.3 2.1-33.8 6.1M347.3 165.5c-12.8 0-24.4 2.2-33.8 6.2v12.5c8.5-4.8 20.3-7.4 33.8-7.4 6.6 0 13 .7 18.8 2v-11.4c-5.9-1.3-12.3-1.9-18.8-1.9" class="st1"/></svg>